<svg width="150" height="40" viewBox="0 0 150 40" fill="none" xmlns="http://www.w3.org/2000/svg">
<rect width="150" height="40" fill="#00A4E5"/>
<path d="M36.3096 25L35.6367 22.791H32.2534L31.5806 25H29.4604L32.7358 15.6816H35.1416L38.4297 25H36.3096ZM35.167 21.1406C34.5449 19.139 34.1937 18.007 34.1133 17.7446C34.0371 17.4823 33.9821 17.2749 33.9482 17.1226C33.8086 17.6642 33.4087 19.0036 32.7485 21.1406H35.167ZM40.104 25V15.7197H42.0718V23.375H45.8359V25H40.104ZM47.9546 25V15.7197H49.9224V23.375H53.6865V25H47.9546ZM65.1602 22.4229C65.1602 23.2607 64.8576 23.9209 64.2524 24.4033C63.6515 24.8857 62.8136 25.127 61.7388 25.127C60.7485 25.127 59.8726 24.9408 59.1108 24.5684V22.7402C59.7371 23.0195 60.2661 23.2163 60.6978 23.3306C61.1336 23.4448 61.5314 23.502 61.8911 23.502C62.3228 23.502 62.6528 23.4194 62.8813 23.2544C63.1141 23.0894 63.2305 22.8439 63.2305 22.5181C63.2305 22.3361 63.1797 22.1753 63.0781 22.0356C62.9766 21.8918 62.8263 21.7542 62.6274 21.623C62.4328 21.4919 62.0329 21.2824 61.4277 20.9946C60.8607 20.728 60.4354 20.472 60.1519 20.2266C59.8683 19.9811 59.6419 19.6955 59.4727 19.3696C59.3034 19.0438 59.2188 18.6629 59.2188 18.2271C59.2188 17.4061 59.4959 16.7607 60.0503 16.291C60.6089 15.8213 61.3791 15.5864 62.3608 15.5864C62.8433 15.5864 63.3024 15.6436 63.7383 15.7578C64.1784 15.8721 64.6375 16.0329 65.1157 16.2402L64.481 17.77C63.9858 17.5669 63.5754 17.4251 63.2495 17.3447C62.9279 17.2643 62.6105 17.2241 62.2974 17.2241C61.925 17.2241 61.6393 17.3109 61.4404 17.4844C61.2415 17.6579 61.1421 17.8843 61.1421 18.1636C61.1421 18.3371 61.1823 18.4894 61.2627 18.6206C61.3431 18.7476 61.4701 18.8724 61.6436 18.9951C61.8213 19.1136 62.2381 19.3294 62.894 19.6426C63.7616 20.0573 64.3561 20.4741 64.6777 20.8931C64.9993 21.3078 65.1602 21.8177 65.1602 22.4229ZM72.687 25H67.3423V15.7197H72.687V17.332H69.3101V19.3696H72.4521V20.9819H69.3101V23.375H72.687V25ZM77.0972 19.8394H77.7319C78.354 19.8394 78.8132 19.7357 79.1094 19.5283C79.4056 19.321 79.5537 18.9951 79.5537 18.5508C79.5537 18.1107 79.4014 17.7975 79.0967 17.6113C78.7962 17.4251 78.3286 17.332 77.6938 17.332H77.0972V19.8394ZM77.0972 21.439V25H75.1294V15.7197H77.8335C79.0946 15.7197 80.0277 15.9504 80.6328 16.4116C81.238 16.8687 81.5405 17.5648 81.5405 18.5C81.5405 19.0459 81.3903 19.5326 81.0898 19.96C80.7894 20.3831 80.3641 20.7153 79.814 20.9565C81.2104 23.0428 82.1203 24.3906 82.5435 25H80.3599L78.1445 21.439H77.0972ZM89.5054 15.7197H91.4922L88.3374 25H86.1919L83.0435 15.7197H85.0303L86.7759 21.2422C86.8732 21.568 86.9727 21.9489 87.0742 22.3848C87.18 22.8164 87.2456 23.1169 87.271 23.2861C87.3175 22.8968 87.4762 22.2155 87.7471 21.2422L89.5054 15.7197ZM93.1665 25V15.7197H95.1343V25H93.1665ZM101.912 17.2241C101.172 17.2241 100.598 17.5034 100.192 18.062C99.7856 18.6164 99.5825 19.3908 99.5825 20.3853C99.5825 22.4546 100.359 23.4893 101.912 23.4893C102.564 23.4893 103.353 23.3263 104.28 23.0005V24.6509C103.518 24.9683 102.667 25.127 101.728 25.127C100.378 25.127 99.3455 24.7186 98.6304 23.9019C97.9152 23.0809 97.5576 21.9045 97.5576 20.3726C97.5576 19.4077 97.7332 18.5635 98.0845 17.8398C98.4357 17.112 98.9393 16.5555 99.5952 16.1704C100.255 15.7811 101.028 15.5864 101.912 15.5864C102.813 15.5864 103.719 15.8044 104.629 16.2402L103.994 17.8398C103.647 17.6748 103.298 17.5309 102.947 17.4082C102.596 17.2855 102.251 17.2241 101.912 17.2241ZM112.105 25H106.76V15.7197H112.105V17.332H108.728V19.3696H111.87V20.9819H108.728V23.375H112.105V25ZM120.025 22.4229C120.025 23.2607 119.723 23.9209 119.118 24.4033C118.517 24.8857 117.679 25.127 116.604 25.127C115.614 25.127 114.738 24.9408 113.976 24.5684V22.7402C114.602 23.0195 115.131 23.2163 115.563 23.3306C115.999 23.4448 116.397 23.502 116.756 23.502C117.188 23.502 117.518 23.4194 117.747 23.2544C117.979 23.0894 118.096 22.8439 118.096 22.5181C118.096 22.3361 118.045 22.1753 117.943 22.0356C117.842 21.8918 117.692 21.7542 117.493 21.623C117.298 21.4919 116.898 21.2824 116.293 20.9946C115.726 20.728 115.301 20.472 115.017 20.2266C114.734 19.9811 114.507 19.6955 114.338 19.3696C114.169 19.0438 114.084 18.6629 114.084 18.2271C114.084 17.4061 114.361 16.7607 114.916 16.291C115.474 15.8213 116.244 15.5864 117.226 15.5864C117.708 15.5864 118.168 15.6436 118.604 15.7578C119.044 15.8721 119.503 16.0329 119.981 16.2402L119.346 17.77C118.851 17.5669 118.441 17.4251 118.115 17.3447C117.793 17.2643 117.476 17.2241 117.163 17.2241C116.79 17.2241 116.505 17.3109 116.306 17.4844C116.107 17.6579 116.007 17.8843 116.007 18.1636C116.007 18.3371 116.048 18.4894 116.128 18.6206C116.208 18.7476 116.335 18.8724 116.509 18.9951C116.687 19.1136 117.103 19.3294 117.759 19.6426C118.627 20.0573 119.221 20.4741 119.543 20.8931C119.865 21.3078 120.025 21.8177 120.025 22.4229Z" fill="white"/>
</svg>
