<svg width="250" height="148" viewBox="0 0 250 148" fill="none" xmlns="http://www.w3.org/2000/svg">
<g clip-path="url(#clip0_0_79)">
<path d="M4.65539 4.85107C3.79243 4.85107 3.1103 5.13932 2.609 5.71582C2.11128 6.28874 1.86242 7.07471 1.86242 8.07373C1.86242 9.1014 2.10233 9.89632 2.58214 10.4585C3.06554 11.0171 3.75304 11.2964 4.64464 11.2964C5.1925 11.2964 5.81733 11.1979 6.51916 11.001V11.8013C5.97488 12.0054 5.3035 12.1074 4.505 12.1074C3.34842 12.1074 2.45503 11.7565 1.82482 11.0547C1.19819 10.3529 0.884878 9.35563 0.884878 8.06299C0.884878 7.25374 1.03527 6.54476 1.33605 5.93604C1.64041 5.32731 2.07726 4.85824 2.6466 4.52881C3.21951 4.19938 3.89269 4.03467 4.66613 4.03467C5.4897 4.03467 6.20942 4.18506 6.82531 4.48584L6.43859 5.27002C5.84419 4.99072 5.24979 4.85107 4.65539 4.85107ZM15.8946 8.06299C15.8946 9.31982 15.5759 10.3081 14.9386 11.0278C14.3048 11.7476 13.4221 12.1074 12.2906 12.1074C11.134 12.1074 10.2406 11.7547 9.61043 11.0493C8.9838 10.3403 8.67049 9.34131 8.67049 8.05225C8.67049 6.77393 8.98559 5.78385 9.6158 5.08203C10.246 4.37663 11.1412 4.02393 12.3013 4.02393C13.4293 4.02393 14.3101 4.382 14.9439 5.09814C15.5777 5.81429 15.8946 6.80257 15.8946 8.06299ZM9.63728 8.06299C9.63728 9.12646 9.86287 9.93392 10.314 10.4854C10.7688 11.0332 11.4276 11.3071 12.2906 11.3071C13.1607 11.3071 13.8178 11.0332 14.2618 10.4854C14.7058 9.9375 14.9278 9.13005 14.9278 8.06299C14.9278 7.00667 14.7058 6.20638 14.2618 5.66211C13.8214 5.11426 13.1679 4.84033 12.3013 4.84033C11.4312 4.84033 10.7688 5.11605 10.314 5.66748C9.86287 6.21533 9.63728 7.01383 9.63728 8.06299ZM21.9722 12L19.3081 5.03906H19.2652C19.3153 5.59049 19.3404 6.24577 19.3404 7.00488V12H18.4971V4.14746H19.8721L22.3589 10.625H22.4019L24.9102 4.14746H26.2745V12H25.3614V6.94043C25.3614 6.36035 25.3864 5.73014 25.4366 5.0498H25.3936L22.708 12H21.9722ZM34.2588 6.43555C34.2588 7.23047 33.9867 7.84277 33.4424 8.27246C32.9017 8.69857 32.1265 8.91162 31.1167 8.91162H30.1929V12H29.2798V4.14746H31.3154C33.2777 4.14746 34.2588 4.91016 34.2588 6.43555ZM30.1929 8.12744H31.0146C31.8239 8.12744 32.4093 7.99674 32.771 7.73535C33.1326 7.47396 33.3135 7.05501 33.3135 6.47852C33.3135 5.95931 33.1434 5.57259 32.8032 5.31836C32.4631 5.06413 31.9331 4.93701 31.2134 4.93701H30.1929V8.12744ZM41.6899 12L40.7124 9.50244H37.5649L36.5981 12H35.6743L38.7788 4.11523H39.5468L42.6352 12H41.6899ZM40.4277 8.68066L39.5146 6.24756C39.3964 5.93962 39.2747 5.56185 39.1494 5.11426C39.0706 5.45801 38.9578 5.83577 38.811 6.24756L37.8872 8.68066H40.4277ZM50.6947 12H49.6528L45.3613 5.40967H45.3183C45.3756 6.18311 45.4042 6.89209 45.4042 7.53662V12H44.561V4.14746H45.5922L49.873 10.7109H49.9159C49.9088 10.6143 49.8927 10.3045 49.8676 9.78174C49.8425 9.25537 49.8336 8.87939 49.8407 8.65381V4.14746H50.6947V12ZM55.6981 8.07373L57.7929 4.14746H58.7811L56.16 8.95459V12H55.2362V8.99756L52.6205 4.14746H53.6195L55.6981 8.07373Z" fill="white"/>
<path d="M1.07959 86V78.1475H1.99268V85.1729H5.45703V86H1.07959ZM12.5912 83.0513C12.5912 84.0109 12.3495 84.7611 11.8661 85.3018C11.3827 85.8389 10.7149 86.1074 9.8627 86.1074C9.33633 86.1074 8.86904 85.9839 8.46084 85.7368C8.05264 85.4897 7.73753 85.1353 7.51553 84.6733C7.29352 84.2114 7.18252 83.6707 7.18252 83.0513C7.18252 82.0916 7.42243 81.3451 7.90225 80.8115C8.38206 80.2744 9.04808 80.0059 9.90029 80.0059C10.7239 80.0059 11.3773 80.2798 11.8607 80.8276C12.3477 81.3755 12.5912 82.1167 12.5912 83.0513ZM8.10635 83.0513C8.10635 83.8032 8.25674 84.3761 8.55752 84.77C8.8583 85.1639 9.30052 85.3608 9.88418 85.3608C10.4678 85.3608 10.9101 85.1657 11.2108 84.7754C11.5152 84.3815 11.6674 83.8068 11.6674 83.0513C11.6674 82.3029 11.5152 81.7354 11.2108 81.3486C10.9101 80.9583 10.4643 80.7632 9.87344 80.7632C9.28978 80.7632 8.84935 80.9548 8.55215 81.3379C8.25495 81.721 8.10635 82.2922 8.10635 83.0513ZM17.6951 80.0059C17.9565 80.0059 18.191 80.0273 18.3987 80.0703L18.2752 80.8975C18.0317 80.8438 17.8169 80.8169 17.6307 80.8169C17.1544 80.8169 16.7462 81.0103 16.4061 81.397C16.0695 81.7837 15.9012 82.2653 15.9012 82.8418V86H15.0096V80.1133H15.7454L15.8475 81.2036H15.8904C16.1089 80.8205 16.372 80.5251 16.68 80.3174C16.9879 80.1097 17.3263 80.0059 17.6951 80.0059ZM22.8366 86.1074C21.9665 86.1074 21.279 85.8424 20.7741 85.3125C20.2728 84.7826 20.0222 84.0467 20.0222 83.105C20.0222 82.1561 20.2549 81.4023 20.7204 80.8438C21.1895 80.2852 21.8179 80.0059 22.6057 80.0059C23.3433 80.0059 23.927 80.2493 24.3566 80.7363C24.7863 81.2197 25.0012 81.8589 25.0012 82.6538V83.2178H20.946C20.9639 83.9089 21.1376 84.4334 21.467 84.7915C21.8 85.1496 22.2673 85.3286 22.8688 85.3286C23.5026 85.3286 24.1293 85.1961 24.7487 84.9312V85.7261C24.4336 85.8621 24.1346 85.9588 23.8518 86.0161C23.5725 86.077 23.2341 86.1074 22.8366 86.1074ZM22.5949 80.7524C22.1223 80.7524 21.7445 80.9064 21.4616 81.2144C21.1823 81.5223 21.0176 81.9484 20.9675 82.4927H24.0451C24.0451 81.9305 23.9198 81.5008 23.6691 81.2036C23.4185 80.9028 23.0604 80.7524 22.5949 80.7524ZM34.88 86V82.1704C34.88 81.7013 34.7797 81.3504 34.5792 81.1177C34.3787 80.8813 34.0672 80.7632 33.6446 80.7632C33.0896 80.7632 32.6796 80.9225 32.4146 81.2412C32.1497 81.5599 32.0172 82.0505 32.0172 82.7129V86H31.1256V82.1704C31.1256 81.7013 31.0253 81.3504 30.8248 81.1177C30.6243 80.8813 30.311 80.7632 29.8849 80.7632C29.3263 80.7632 28.9163 80.9315 28.6549 81.2681C28.3971 81.6011 28.2682 82.1489 28.2682 82.9116V86H27.3766V80.1133H28.1017L28.2467 80.9189H28.2896C28.4579 80.6325 28.6943 80.4087 28.9986 80.2476C29.3066 80.0864 29.6503 80.0059 30.0299 80.0059C30.9501 80.0059 31.5517 80.3389 31.8346 81.0049H31.8775C32.053 80.6969 32.3072 80.4535 32.6402 80.2744C32.9732 80.0954 33.3528 80.0059 33.7789 80.0059C34.4449 80.0059 34.9426 80.1777 35.2721 80.5215C35.6051 80.8617 35.7716 81.4077 35.7716 82.1597V86H34.88ZM43.0629 86H42.1713V80.1133H43.0629V86ZM42.0961 78.5181C42.0961 78.314 42.1462 78.1654 42.2465 78.0723C42.3467 77.9756 42.4721 77.9272 42.6225 77.9272C42.7657 77.9272 42.8892 77.9756 42.9931 78.0723C43.0969 78.1689 43.1488 78.3175 43.1488 78.5181C43.1488 78.7186 43.0969 78.869 42.9931 78.9692C42.8892 79.0659 42.7657 79.1143 42.6225 79.1143C42.4721 79.1143 42.3467 79.0659 42.2465 78.9692C42.1462 78.869 42.0961 78.7186 42.0961 78.5181ZM48.5428 86.1074C48.1596 86.1074 47.8087 86.0376 47.49 85.8979C47.1749 85.7547 46.91 85.5363 46.6951 85.2427H46.6307C46.6736 85.5864 46.6951 85.9123 46.6951 86.2202V88.6426H45.8035V80.1133H46.5286L46.6521 80.9189H46.6951C46.9243 80.5967 47.191 80.3639 47.4954 80.2207C47.7998 80.0775 48.1489 80.0059 48.5428 80.0059C49.3234 80.0059 49.9249 80.2726 50.3475 80.8062C50.7736 81.3397 50.9866 82.0881 50.9866 83.0513C50.9866 84.0181 50.77 84.77 50.3367 85.3071C49.907 85.8407 49.3091 86.1074 48.5428 86.1074ZM48.4139 80.7632C47.8123 80.7632 47.3772 80.9297 47.1087 81.2627C46.8401 81.5957 46.7023 82.1257 46.6951 82.8525V83.0513C46.6951 83.8784 46.833 84.471 47.1087 84.8291C47.3844 85.1836 47.8266 85.3608 48.4354 85.3608C48.9438 85.3608 49.3413 85.1549 49.6277 84.7432C49.9178 84.3314 50.0628 83.7638 50.0628 83.0405C50.0628 82.3065 49.9178 81.7443 49.6277 81.354C49.3413 80.9601 48.9367 80.7632 48.4139 80.7632ZM57.197 84.394C57.197 84.9419 56.9929 85.3644 56.5847 85.6616C56.1765 85.9588 55.6035 86.1074 54.8659 86.1074C54.0853 86.1074 53.4766 85.9839 53.0397 85.7368V84.9097C53.3226 85.0529 53.6252 85.1657 53.9475 85.248C54.2733 85.3304 54.5866 85.3716 54.8874 85.3716C55.3529 85.3716 55.711 85.2982 55.9616 85.1514C56.2123 85.001 56.3376 84.7736 56.3376 84.4692C56.3376 84.2401 56.2373 84.0449 56.0368 83.8838C55.8399 83.7191 55.4532 83.5257 54.8767 83.3037C54.3288 83.0996 53.9385 82.9224 53.7058 82.772C53.4766 82.618 53.3047 82.4443 53.1901 82.251C53.0791 82.0576 53.0236 81.8267 53.0236 81.5581C53.0236 81.0783 53.2188 80.7005 53.6091 80.4248C53.9994 80.1455 54.5347 80.0059 55.215 80.0059C55.8488 80.0059 56.4683 80.1348 57.0734 80.3926L56.7565 81.1177C56.1657 80.8742 55.6304 80.7524 55.1506 80.7524C54.7281 80.7524 54.4094 80.8187 54.1945 80.9512C53.9797 81.0837 53.8723 81.2663 53.8723 81.499C53.8723 81.6566 53.9117 81.7909 53.9904 81.9019C54.0728 82.0129 54.2035 82.1185 54.3825 82.2188C54.5616 82.319 54.9053 82.464 55.4138 82.6538C56.112 82.908 56.5829 83.1641 56.8264 83.4219C57.0734 83.6797 57.197 84.0037 57.197 84.394ZM60.3404 80.1133V83.9321C60.3404 84.4119 60.4496 84.77 60.6681 85.0063C60.8865 85.2427 61.2285 85.3608 61.6939 85.3608C62.3098 85.3608 62.7592 85.1925 63.0421 84.856C63.3285 84.5194 63.4718 83.9697 63.4718 83.207V80.1133H64.3634V86H63.6275L63.4986 85.2104H63.4503C63.2677 85.5005 63.0134 85.7225 62.6876 85.8765C62.3653 86.0304 61.9965 86.1074 61.5812 86.1074C60.865 86.1074 60.3279 85.9373 59.9698 85.5972C59.6153 85.257 59.4381 84.7127 59.4381 83.9644V80.1133H60.3404ZM74.6128 86V82.1704C74.6128 81.7013 74.5125 81.3504 74.312 81.1177C74.1115 80.8813 73.8 80.7632 73.3774 80.7632C72.8224 80.7632 72.4124 80.9225 72.1475 81.2412C71.8825 81.5599 71.75 82.0505 71.75 82.7129V86H70.8584V82.1704C70.8584 81.7013 70.7581 81.3504 70.5576 81.1177C70.3571 80.8813 70.0438 80.7632 69.6177 80.7632C69.0591 80.7632 68.6491 80.9315 68.3877 81.2681C68.1299 81.6011 68.001 82.1489 68.001 82.9116V86H67.1094V80.1133H67.8345L67.9795 80.9189H68.0225C68.1908 80.6325 68.4271 80.4087 68.7314 80.2476C69.0394 80.0864 69.3831 80.0059 69.7627 80.0059C70.6829 80.0059 71.2845 80.3389 71.5674 81.0049H71.6104C71.7858 80.6969 72.04 80.4535 72.373 80.2744C72.7061 80.0954 73.0856 80.0059 73.5117 80.0059C74.1777 80.0059 74.6755 80.1777 75.0049 80.5215C75.3379 80.8617 75.5044 81.4077 75.5044 82.1597V86H74.6128ZM85.9109 85.2104H85.8626C85.4508 85.8084 84.8349 86.1074 84.0149 86.1074C83.2451 86.1074 82.6453 85.8442 82.2156 85.3179C81.7895 84.7915 81.5765 84.0431 81.5765 83.0728C81.5765 82.1024 81.7913 81.3486 82.221 80.8115C82.6507 80.2744 83.2487 80.0059 84.0149 80.0059C84.8134 80.0059 85.4257 80.2959 85.8519 80.876H85.9217L85.8841 80.4517L85.8626 80.0381V77.6426H86.7542V86H86.0291L85.9109 85.2104ZM84.1277 85.3608C84.7365 85.3608 85.1769 85.1961 85.449 84.8667C85.7247 84.5337 85.8626 83.9984 85.8626 83.2607V83.0728C85.8626 82.2384 85.7229 81.644 85.4436 81.2896C85.1679 80.9315 84.7257 80.7524 84.117 80.7524C83.5942 80.7524 83.1932 80.9565 82.9139 81.3647C82.6381 81.7694 82.5003 82.3423 82.5003 83.0835C82.5003 83.8354 82.6381 84.403 82.9139 84.7861C83.1896 85.1693 83.5942 85.3608 84.1277 85.3608ZM94.5813 83.0513C94.5813 84.0109 94.3396 84.7611 93.8562 85.3018C93.3728 85.8389 92.705 86.1074 91.8527 86.1074C91.3264 86.1074 90.8591 85.9839 90.4509 85.7368C90.0427 85.4897 89.7276 85.1353 89.5056 84.6733C89.2836 84.2114 89.1726 83.6707 89.1726 83.0513C89.1726 82.0916 89.4125 81.3451 89.8923 80.8115C90.3721 80.2744 91.0381 80.0059 91.8903 80.0059C92.7139 80.0059 93.3674 80.2798 93.8508 80.8276C94.3378 81.3755 94.5813 82.1167 94.5813 83.0513ZM90.0964 83.0513C90.0964 83.8032 90.2468 84.3761 90.5476 84.77C90.8483 85.1639 91.2906 85.3608 91.8742 85.3608C92.4579 85.3608 92.9001 85.1657 93.2009 84.7754C93.5052 84.3815 93.6574 83.8068 93.6574 83.0513C93.6574 82.3029 93.5052 81.7354 93.2009 81.3486C92.9001 80.9583 92.4543 80.7632 91.8635 80.7632C91.2798 80.7632 90.8394 80.9548 90.5422 81.3379C90.245 81.721 90.0964 82.2922 90.0964 83.0513ZM97.8912 86H96.9996V77.6426H97.8912V86ZM105.713 83.0513C105.713 84.0109 105.471 84.7611 104.988 85.3018C104.504 85.8389 103.837 86.1074 102.984 86.1074C102.458 86.1074 101.991 85.9839 101.583 85.7368C101.174 85.4897 100.859 85.1353 100.637 84.6733C100.415 84.2114 100.304 83.6707 100.304 83.0513C100.304 82.0916 100.544 81.3451 101.024 80.8115C101.504 80.2744 102.17 80.0059 103.022 80.0059C103.846 80.0059 104.499 80.2798 104.982 80.8276C105.469 81.3755 105.713 82.1167 105.713 83.0513ZM101.228 83.0513C101.228 83.8032 101.378 84.3761 101.679 84.77C101.98 85.1639 102.422 85.3608 103.006 85.3608C103.59 85.3608 104.032 85.1657 104.333 84.7754C104.637 84.3815 104.789 83.8068 104.789 83.0513C104.789 82.3029 104.637 81.7354 104.333 81.3486C104.032 80.9583 103.586 80.7632 102.995 80.7632C102.411 80.7632 101.971 80.9548 101.674 81.3379C101.377 81.721 101.228 82.2922 101.228 83.0513ZM110.817 80.0059C111.078 80.0059 111.313 80.0273 111.52 80.0703L111.397 80.8975C111.153 80.8438 110.939 80.8169 110.752 80.8169C110.276 80.8169 109.868 81.0103 109.528 81.397C109.191 81.7837 109.023 82.2653 109.023 82.8418V86H108.131V80.1133H108.867L108.969 81.2036H109.012C109.231 80.8205 109.494 80.5251 109.802 80.3174C110.11 80.1097 110.448 80.0059 110.817 80.0059ZM120.976 84.394C120.976 84.9419 120.772 85.3644 120.364 85.6616C119.956 85.9588 119.383 86.1074 118.645 86.1074C117.865 86.1074 117.256 85.9839 116.819 85.7368V84.9097C117.102 85.0529 117.404 85.1657 117.727 85.248C118.053 85.3304 118.366 85.3716 118.667 85.3716C119.132 85.3716 119.49 85.2982 119.741 85.1514C119.992 85.001 120.117 84.7736 120.117 84.4692C120.117 84.2401 120.017 84.0449 119.816 83.8838C119.619 83.7191 119.232 83.5257 118.656 83.3037C118.108 83.0996 117.718 82.9224 117.485 82.772C117.256 82.618 117.084 82.4443 116.969 82.251C116.858 82.0576 116.803 81.8267 116.803 81.5581C116.803 81.0783 116.998 80.7005 117.388 80.4248C117.779 80.1455 118.314 80.0059 118.994 80.0059C119.628 80.0059 120.248 80.1348 120.853 80.3926L120.536 81.1177C119.945 80.8742 119.41 80.7524 118.93 80.7524C118.507 80.7524 118.189 80.8187 117.974 80.9512C117.759 81.0837 117.652 81.2663 117.652 81.499C117.652 81.6566 117.691 81.7909 117.77 81.9019C117.852 82.0129 117.983 82.1185 118.162 82.2188C118.341 82.319 118.685 82.464 119.193 82.6538C119.891 82.908 120.362 83.1641 120.606 83.4219C120.853 83.6797 120.976 84.0037 120.976 84.394ZM124.173 86H123.282V80.1133H124.173V86ZM123.207 78.5181C123.207 78.314 123.257 78.1654 123.357 78.0723C123.457 77.9756 123.583 77.9272 123.733 77.9272C123.876 77.9272 124 77.9756 124.104 78.0723C124.207 78.1689 124.259 78.3175 124.259 78.5181C124.259 78.7186 124.207 78.869 124.104 78.9692C124 79.0659 123.876 79.1143 123.733 79.1143C123.583 79.1143 123.457 79.0659 123.357 78.9692C123.257 78.869 123.207 78.7186 123.207 78.5181ZM128.815 85.3716C128.973 85.3716 129.125 85.3608 129.272 85.3394C129.419 85.3143 129.535 85.2892 129.621 85.2642V85.9463C129.524 85.9928 129.381 86.0304 129.191 86.0591C129.005 86.0913 128.837 86.1074 128.687 86.1074C127.548 86.1074 126.979 85.5076 126.979 84.3081V80.8062H126.135V80.3765L126.979 80.0059L127.354 78.749H127.87V80.1133H129.578V80.8062H127.87V84.2705C127.87 84.625 127.954 84.8971 128.123 85.0869C128.291 85.2767 128.522 85.3716 128.815 85.3716ZM138.98 86L138.803 85.1621H138.76C138.466 85.5309 138.173 85.7816 137.879 85.9141C137.589 86.043 137.226 86.1074 136.789 86.1074C136.205 86.1074 135.747 85.957 135.414 85.6562C135.084 85.3555 134.92 84.9276 134.92 84.3726C134.92 83.1838 135.87 82.5607 137.772 82.5034L138.771 82.4712V82.106C138.771 81.644 138.671 81.3039 138.47 81.0854C138.273 80.8634 137.956 80.7524 137.519 80.7524C137.029 80.7524 136.474 80.9028 135.854 81.2036L135.58 80.5215C135.87 80.3639 136.187 80.2404 136.531 80.1509C136.878 80.0614 137.226 80.0166 137.573 80.0166C138.275 80.0166 138.794 80.1724 139.131 80.4839C139.471 80.7954 139.641 81.2949 139.641 81.9824V86H138.98ZM136.966 85.3716C137.521 85.3716 137.956 85.2194 138.271 84.915C138.59 84.6107 138.749 84.1846 138.749 83.6367V83.105L137.858 83.1426C137.149 83.1676 136.637 83.2786 136.322 83.4756C136.01 83.6689 135.854 83.9715 135.854 84.3833C135.854 84.7056 135.951 84.9508 136.144 85.1191C136.341 85.2874 136.615 85.3716 136.966 85.3716ZM149.837 86V82.1704C149.837 81.7013 149.736 81.3504 149.536 81.1177C149.335 80.8813 149.024 80.7632 148.601 80.7632C148.046 80.7632 147.636 80.9225 147.371 81.2412C147.106 81.5599 146.974 82.0505 146.974 82.7129V86H146.082V82.1704C146.082 81.7013 145.982 81.3504 145.781 81.1177C145.581 80.8813 145.268 80.7632 144.842 80.7632C144.283 80.7632 143.873 80.9315 143.612 81.2681C143.354 81.6011 143.225 82.1489 143.225 82.9116V86H142.333V80.1133H143.058L143.203 80.9189H143.246C143.415 80.6325 143.651 80.4087 143.955 80.2476C144.263 80.0864 144.607 80.0059 144.987 80.0059C145.907 80.0059 146.508 80.3389 146.791 81.0049H146.834C147.01 80.6969 147.264 80.4535 147.597 80.2744C147.93 80.0954 148.309 80.0059 148.736 80.0059C149.402 80.0059 149.899 80.1777 150.229 80.5215C150.562 80.8617 150.728 81.4077 150.728 82.1597V86H149.837ZM155.907 86.1074C155.037 86.1074 154.35 85.8424 153.845 85.3125C153.344 84.7826 153.093 84.0467 153.093 83.105C153.093 82.1561 153.326 81.4023 153.791 80.8438C154.26 80.2852 154.889 80.0059 155.676 80.0059C156.414 80.0059 156.998 80.2493 157.427 80.7363C157.857 81.2197 158.072 81.8589 158.072 82.6538V83.2178H154.017C154.035 83.9089 154.208 84.4334 154.538 84.7915C154.871 85.1496 155.338 85.3286 155.94 85.3286C156.573 85.3286 157.2 85.1961 157.819 84.9312V85.7261C157.504 85.8621 157.205 85.9588 156.922 86.0161C156.643 86.077 156.305 86.1074 155.907 86.1074ZM155.666 80.7524C155.193 80.7524 154.815 80.9064 154.532 81.2144C154.253 81.5223 154.088 81.9484 154.038 82.4927H157.116C157.116 81.9305 156.99 81.5008 156.74 81.2036C156.489 80.9028 156.131 80.7524 155.666 80.7524ZM162.349 85.3716C162.506 85.3716 162.658 85.3608 162.805 85.3394C162.952 85.3143 163.068 85.2892 163.154 85.2642V85.9463C163.058 85.9928 162.914 86.0304 162.725 86.0591C162.538 86.0913 162.37 86.1074 162.22 86.1074C161.081 86.1074 160.512 85.5076 160.512 84.3081V80.8062H159.668V80.3765L160.512 80.0059L160.888 78.749H161.403V80.1133H163.111V80.8062H161.403V84.2705C161.403 84.625 161.487 84.8971 161.656 85.0869C161.824 85.2767 162.055 85.3716 162.349 85.3716ZM166.121 84.7217L166.201 84.8452C166.108 85.2033 165.974 85.6187 165.798 86.0913C165.623 86.5675 165.44 87.0098 165.25 87.418H164.579C164.676 87.0456 164.781 86.5854 164.896 86.0376C165.014 85.4897 165.096 85.0511 165.143 84.7217H166.121ZM174.792 86.1074C173.94 86.1074 173.279 85.846 172.81 85.3232C172.345 84.7969 172.112 84.0539 172.112 83.0942C172.112 82.1095 172.348 81.3486 172.821 80.8115C173.297 80.2744 173.974 80.0059 174.851 80.0059C175.134 80.0059 175.417 80.0363 175.7 80.0972C175.983 80.158 176.205 80.2297 176.366 80.312L176.092 81.0693C175.895 80.9906 175.68 80.9261 175.447 80.876C175.215 80.8223 175.009 80.7954 174.83 80.7954C173.634 80.7954 173.036 81.5581 173.036 83.0835C173.036 83.8068 173.181 84.3618 173.471 84.7485C173.765 85.1353 174.198 85.3286 174.771 85.3286C175.261 85.3286 175.764 85.223 176.28 85.0117V85.8013C175.886 86.0054 175.39 86.1074 174.792 86.1074ZM183.613 83.0513C183.613 84.0109 183.371 84.7611 182.888 85.3018C182.404 85.8389 181.737 86.1074 180.884 86.1074C180.358 86.1074 179.891 85.9839 179.483 85.7368C179.074 85.4897 178.759 85.1353 178.537 84.6733C178.315 84.2114 178.204 83.6707 178.204 83.0513C178.204 82.0916 178.444 81.3451 178.924 80.8115C179.404 80.2744 180.07 80.0059 180.922 80.0059C181.746 80.0059 182.399 80.2798 182.882 80.8276C183.369 81.3755 183.613 82.1167 183.613 83.0513ZM179.128 83.0513C179.128 83.8032 179.278 84.3761 179.579 84.77C179.88 85.1639 180.322 85.3608 180.906 85.3608C181.49 85.3608 181.932 85.1657 182.233 84.7754C182.537 84.3815 182.689 83.8068 182.689 83.0513C182.689 82.3029 182.537 81.7354 182.233 81.3486C181.932 80.9583 181.486 80.7632 180.895 80.7632C180.311 80.7632 179.871 80.9548 179.574 81.3379C179.277 81.721 179.128 82.2922 179.128 83.0513ZM190.06 86V82.1919C190.06 81.7121 189.95 81.354 189.732 81.1177C189.514 80.8813 189.172 80.7632 188.706 80.7632C188.09 80.7632 187.639 80.9297 187.353 81.2627C187.066 81.5957 186.923 82.1453 186.923 82.9116V86H186.031V80.1133H186.756L186.901 80.9189H186.944C187.127 80.6289 187.383 80.4051 187.712 80.2476C188.042 80.0864 188.409 80.0059 188.813 80.0059C189.522 80.0059 190.056 80.1777 190.414 80.5215C190.772 80.8617 190.951 81.4077 190.951 82.1597V86H190.06ZM197.435 84.394C197.435 84.9419 197.231 85.3644 196.823 85.6616C196.415 85.9588 195.842 86.1074 195.104 86.1074C194.324 86.1074 193.715 85.9839 193.278 85.7368V84.9097C193.561 85.0529 193.864 85.1657 194.186 85.248C194.512 85.3304 194.825 85.3716 195.126 85.3716C195.591 85.3716 195.949 85.2982 196.2 85.1514C196.451 85.001 196.576 84.7736 196.576 84.4692C196.576 84.2401 196.476 84.0449 196.275 83.8838C196.078 83.7191 195.692 83.5257 195.115 83.3037C194.567 83.0996 194.177 82.9224 193.944 82.772C193.715 82.618 193.543 82.4443 193.429 82.251C193.318 82.0576 193.262 81.8267 193.262 81.5581C193.262 81.0783 193.457 80.7005 193.848 80.4248C194.238 80.1455 194.773 80.0059 195.454 80.0059C196.087 80.0059 196.707 80.1348 197.312 80.3926L196.995 81.1177C196.404 80.8742 195.869 80.7524 195.389 80.7524C194.967 80.7524 194.648 80.8187 194.433 80.9512C194.218 81.0837 194.111 81.2663 194.111 81.499C194.111 81.6566 194.15 81.7909 194.229 81.9019C194.311 82.0129 194.442 82.1185 194.621 82.2188C194.8 82.319 195.144 82.464 195.652 82.6538C196.35 82.908 196.821 83.1641 197.065 83.4219C197.312 83.6797 197.435 84.0037 197.435 84.394ZM202.228 86.1074C201.358 86.1074 200.67 85.8424 200.165 85.3125C199.664 84.7826 199.413 84.0467 199.413 83.105C199.413 82.1561 199.646 81.4023 200.112 80.8438C200.581 80.2852 201.209 80.0059 201.997 80.0059C202.735 80.0059 203.318 80.2493 203.748 80.7363C204.178 81.2197 204.392 81.8589 204.392 82.6538V83.2178H200.337C200.355 83.9089 200.529 84.4334 200.858 84.7915C201.191 85.1496 201.658 85.3286 202.26 85.3286C202.894 85.3286 203.52 85.1961 204.14 84.9312V85.7261C203.825 85.8621 203.526 85.9588 203.243 86.0161C202.964 86.077 202.625 86.1074 202.228 86.1074ZM201.986 80.7524C201.513 80.7524 201.136 80.9064 200.853 81.2144C200.574 81.5223 200.409 81.9484 200.359 82.4927H203.436C203.436 81.9305 203.311 81.5008 203.06 81.2036C202.81 80.9028 202.452 80.7524 201.986 80.7524ZM209.12 86.1074C208.268 86.1074 207.607 85.846 207.138 85.3232C206.673 84.7969 206.44 84.0539 206.44 83.0942C206.44 82.1095 206.676 81.3486 207.149 80.8115C207.625 80.2744 208.302 80.0059 209.179 80.0059C209.462 80.0059 209.745 80.0363 210.028 80.0972C210.311 80.158 210.533 80.2297 210.694 80.312L210.42 81.0693C210.223 80.9906 210.008 80.9261 209.776 80.876C209.543 80.8223 209.337 80.7954 209.158 80.7954C207.962 80.7954 207.364 81.5581 207.364 83.0835C207.364 83.8068 207.509 84.3618 207.799 84.7485C208.093 85.1353 208.526 85.3286 209.099 85.3286C209.589 85.3286 210.092 85.223 210.608 85.0117V85.8013C210.214 86.0054 209.718 86.1074 209.12 86.1074ZM214.761 85.3716C214.919 85.3716 215.071 85.3608 215.218 85.3394C215.365 85.3143 215.481 85.2892 215.567 85.2642V85.9463C215.47 85.9928 215.327 86.0304 215.137 86.0591C214.951 86.0913 214.783 86.1074 214.632 86.1074C213.494 86.1074 212.924 85.5076 212.924 84.3081V80.8062H212.081V80.3765L212.924 80.0059L213.3 78.749H213.816V80.1133H215.524V80.8062H213.816V84.2705C213.816 84.625 213.9 84.8971 214.068 85.0869C214.237 85.2767 214.468 85.3716 214.761 85.3716ZM220.085 86.1074C219.215 86.1074 218.528 85.8424 218.023 85.3125C217.522 84.7826 217.271 84.0467 217.271 83.105C217.271 82.1561 217.504 81.4023 217.969 80.8438C218.438 80.2852 219.067 80.0059 219.854 80.0059C220.592 80.0059 221.176 80.2493 221.605 80.7363C222.035 81.2197 222.25 81.8589 222.25 82.6538V83.2178H218.195C218.213 83.9089 218.386 84.4334 218.716 84.7915C219.049 85.1496 219.516 85.3286 220.118 85.3286C220.751 85.3286 221.378 85.1961 221.998 84.9312V85.7261C221.682 85.8621 221.383 85.9588 221.101 86.0161C220.821 86.077 220.483 86.1074 220.085 86.1074ZM219.844 80.7524C219.371 80.7524 218.993 80.9064 218.71 81.2144C218.431 81.5223 218.266 81.9484 218.216 82.4927H221.294C221.294 81.9305 221.169 81.5008 220.918 81.2036C220.667 80.9028 220.309 80.7524 219.844 80.7524ZM226.527 85.3716C226.684 85.3716 226.836 85.3608 226.983 85.3394C227.13 85.3143 227.246 85.2892 227.332 85.2642V85.9463C227.236 85.9928 227.093 86.0304 226.903 86.0591C226.717 86.0913 226.548 86.1074 226.398 86.1074C225.259 86.1074 224.69 85.5076 224.69 84.3081V80.8062H223.847V80.3765L224.69 80.0059L225.066 78.749H225.581V80.1133H227.289V80.8062H225.581V84.2705C225.581 84.625 225.666 84.8971 225.834 85.0869C226.002 85.2767 226.233 85.3716 226.527 85.3716ZM230.202 80.1133V83.9321C230.202 84.4119 230.311 84.77 230.53 85.0063C230.748 85.2427 231.09 85.3608 231.555 85.3608C232.171 85.3608 232.621 85.1925 232.904 84.856C233.19 84.5194 233.333 83.9697 233.333 83.207V80.1133H234.225V86H233.489L233.36 85.2104H233.312C233.129 85.5005 232.875 85.7225 232.549 85.8765C232.227 86.0304 231.858 86.1074 231.443 86.1074C230.727 86.1074 230.189 85.9373 229.831 85.5972C229.477 85.257 229.3 84.7127 229.3 83.9644V80.1133H230.202ZM239.458 86.1074C238.588 86.1074 237.9 85.8424 237.395 85.3125C236.894 84.7826 236.643 84.0467 236.643 83.105C236.643 82.1561 236.876 81.4023 237.342 80.8438C237.811 80.2852 238.439 80.0059 239.227 80.0059C239.964 80.0059 240.548 80.2493 240.978 80.7363C241.407 81.2197 241.622 81.8589 241.622 82.6538V83.2178H237.567C237.585 83.9089 237.759 84.4334 238.088 84.7915C238.421 85.1496 238.888 85.3286 239.49 85.3286C240.124 85.3286 240.75 85.1961 241.37 84.9312V85.7261C241.055 85.8621 240.756 85.9588 240.473 86.0161C240.194 86.077 239.855 86.1074 239.458 86.1074ZM239.216 80.7524C238.743 80.7524 238.366 80.9064 238.083 81.2144C237.803 81.5223 237.639 81.9484 237.589 82.4927H240.666C240.666 81.9305 240.541 81.5008 240.29 81.2036C240.04 80.9028 239.682 80.7524 239.216 80.7524ZM246.683 80.0059C246.945 80.0059 247.179 80.0273 247.387 80.0703L247.263 80.8975C247.02 80.8438 246.805 80.8169 246.619 80.8169C246.143 80.8169 245.734 81.0103 245.394 81.397C245.058 81.7837 244.889 82.2653 244.889 82.8418V86H243.998V80.1133H244.733L244.836 81.2036H244.879C245.097 80.8205 245.36 80.5251 245.668 80.3174C245.976 80.1097 246.314 80.0059 246.683 80.0059ZM4.56543 105L4.38818 104.162H4.34521C4.0516 104.531 3.75798 104.782 3.46436 104.914C3.17432 105.043 2.81087 105.107 2.37402 105.107C1.79036 105.107 1.33203 104.957 0.999023 104.656C0.669596 104.355 0.504883 103.928 0.504883 103.373C0.504883 102.184 1.45557 101.561 3.35693 101.503L4.35596 101.471V101.106C4.35596 100.644 4.2557 100.304 4.05518 100.085C3.85824 99.8634 3.54134 99.7524 3.10449 99.7524C2.61393 99.7524 2.05892 99.9028 1.43945 100.204L1.16553 99.5215C1.45557 99.3639 1.77246 99.2404 2.11621 99.1509C2.46354 99.0614 2.81087 99.0166 3.1582 99.0166C3.86003 99.0166 4.37923 99.1724 4.71582 99.4839C5.05599 99.7954 5.22607 100.295 5.22607 100.982V105H4.56543ZM2.55127 104.372C3.10628 104.372 3.54134 104.219 3.85645 103.915C4.17513 103.611 4.33447 103.185 4.33447 102.637V102.105L3.44287 102.143C2.73389 102.168 2.22184 102.279 1.90674 102.476C1.59521 102.669 1.43945 102.972 1.43945 103.383C1.43945 103.706 1.53613 103.951 1.72949 104.119C1.92643 104.287 2.20036 104.372 2.55127 104.372ZM11.9252 104.21H11.8769C11.4651 104.808 10.8492 105.107 10.0292 105.107C9.25934 105.107 8.65957 104.844 8.22988 104.318C7.80378 103.792 7.59072 103.043 7.59072 102.073C7.59072 101.102 7.80557 100.349 8.23525 99.8115C8.66494 99.2744 9.26292 99.0059 10.0292 99.0059C10.8277 99.0059 11.44 99.2959 11.8661 99.876H11.9359L11.8983 99.4517L11.8769 99.0381V96.6426H12.7685V105H12.0434L11.9252 104.21ZM10.142 104.361C10.7507 104.361 11.1911 104.196 11.4633 103.867C11.739 103.534 11.8769 102.998 11.8769 102.261V102.073C11.8769 101.238 11.7372 100.644 11.4579 100.29C11.1822 99.9315 10.74 99.7524 10.1312 99.7524C9.60846 99.7524 9.20742 99.9565 8.92812 100.365C8.65241 100.769 8.51455 101.342 8.51455 102.083C8.51455 102.835 8.65241 103.403 8.92812 103.786C9.20384 104.169 9.60846 104.361 10.142 104.361ZM16.4061 105H15.5145V99.1133H16.4061V105ZM15.4393 97.5181C15.4393 97.314 15.4894 97.1654 15.5896 97.0723C15.6899 96.9756 15.8152 96.9272 15.9656 96.9272C16.1089 96.9272 16.2324 96.9756 16.3362 97.0723C16.4401 97.1689 16.492 97.3175 16.492 97.5181C16.492 97.7186 16.4401 97.869 16.3362 97.9692C16.2324 98.0659 16.1089 98.1143 15.9656 98.1143C15.8152 98.1143 15.6899 98.0659 15.5896 97.9692C15.4894 97.869 15.4393 97.7186 15.4393 97.5181ZM21.8859 105.107C21.5028 105.107 21.1519 105.038 20.8332 104.898C20.5181 104.755 20.2531 104.536 20.0383 104.243H19.9738C20.0168 104.586 20.0383 104.912 20.0383 105.22V107.643H19.1467V99.1133H19.8718L19.9953 99.9189H20.0383C20.2674 99.5967 20.5342 99.3639 20.8386 99.2207C21.1429 99.0775 21.4921 99.0059 21.8859 99.0059C22.6665 99.0059 23.2681 99.2726 23.6906 99.8062C24.1167 100.34 24.3298 101.088 24.3298 102.051C24.3298 103.018 24.1132 103.77 23.6799 104.307C23.2502 104.841 22.6522 105.107 21.8859 105.107ZM21.757 99.7632C21.1555 99.7632 20.7204 99.9297 20.4519 100.263C20.1833 100.596 20.0454 101.126 20.0383 101.853V102.051C20.0383 102.878 20.1761 103.471 20.4519 103.829C20.7276 104.184 21.1698 104.361 21.7785 104.361C22.287 104.361 22.6844 104.155 22.9709 103.743C23.2609 103.331 23.406 102.764 23.406 102.041C23.406 101.306 23.2609 100.744 22.9709 100.354C22.6844 99.9601 22.2798 99.7632 21.757 99.7632ZM27.6344 105H26.7428V99.1133H27.6344V105ZM26.6676 97.5181C26.6676 97.314 26.7177 97.1654 26.818 97.0723C26.9182 96.9756 27.0436 96.9272 27.1939 96.9272C27.3372 96.9272 27.4607 96.9756 27.5646 97.0723C27.6684 97.1689 27.7203 97.3175 27.7203 97.5181C27.7203 97.7186 27.6684 97.869 27.5646 97.9692C27.4607 98.0659 27.3372 98.1143 27.1939 98.1143C27.0436 98.1143 26.9182 98.0659 26.818 97.9692C26.7177 97.869 26.6676 97.7186 26.6676 97.5181ZM34.1724 103.394C34.1724 103.942 33.9683 104.364 33.5601 104.662C33.1519 104.959 32.5789 105.107 31.8413 105.107C31.0607 105.107 30.452 104.984 30.0151 104.737V103.91C30.298 104.053 30.6006 104.166 30.9229 104.248C31.2487 104.33 31.562 104.372 31.8628 104.372C32.3283 104.372 32.6864 104.298 32.937 104.151C33.1877 104.001 33.313 103.774 33.313 103.469C33.313 103.24 33.2127 103.045 33.0122 102.884C32.8153 102.719 32.4285 102.526 31.8521 102.304C31.3042 102.1 30.9139 101.922 30.6812 101.772C30.452 101.618 30.2801 101.444 30.1655 101.251C30.0545 101.058 29.999 100.827 29.999 100.558C29.999 100.078 30.1942 99.7005 30.5845 99.4248C30.9748 99.1455 31.5101 99.0059 32.1904 99.0059C32.8242 99.0059 33.4437 99.1348 34.0488 99.3926L33.7319 100.118C33.1411 99.8742 32.6058 99.7524 32.126 99.7524C31.7035 99.7524 31.3848 99.8187 31.1699 99.9512C30.9551 100.084 30.8477 100.266 30.8477 100.499C30.8477 100.657 30.887 100.791 30.9658 100.902C31.0482 101.013 31.1789 101.118 31.3579 101.219C31.5369 101.319 31.8807 101.464 32.3892 101.654C33.0874 101.908 33.5583 102.164 33.8018 102.422C34.0488 102.68 34.1724 103.004 34.1724 103.394ZM38.8305 105.107C37.9783 105.107 37.3176 104.846 36.8485 104.323C36.383 103.797 36.1503 103.054 36.1503 102.094C36.1503 101.11 36.3866 100.349 36.8593 99.8115C37.3355 99.2744 38.0123 99.0059 38.8895 99.0059C39.1724 99.0059 39.4553 99.0363 39.7382 99.0972C40.0211 99.158 40.2431 99.2297 40.4042 99.312L40.1303 100.069C39.9333 99.9906 39.7185 99.9261 39.4857 99.876C39.253 99.8223 39.0471 99.7954 38.8681 99.7954C37.6721 99.7954 37.0741 100.558 37.0741 102.083C37.0741 102.807 37.2191 103.362 37.5092 103.749C37.8028 104.135 38.2361 104.329 38.809 104.329C39.2995 104.329 39.8026 104.223 40.3183 104.012V104.801C39.9244 105.005 39.4284 105.107 38.8305 105.107ZM43.4617 105H42.5701V99.1133H43.4617V105ZM42.4949 97.5181C42.4949 97.314 42.5451 97.1654 42.6453 97.0723C42.7456 96.9756 42.8709 96.9272 43.0213 96.9272C43.1645 96.9272 43.2881 96.9756 43.3919 97.0723C43.4957 97.1689 43.5477 97.3175 43.5477 97.5181C43.5477 97.7186 43.4957 97.869 43.3919 97.9692C43.2881 98.0659 43.1645 98.1143 43.0213 98.1143C42.8709 98.1143 42.7456 98.0659 42.6453 97.9692C42.5451 97.869 42.4949 97.7186 42.4949 97.5181ZM50.2307 105V101.192C50.2307 100.712 50.1215 100.354 49.903 100.118C49.6846 99.8813 49.3426 99.7632 48.8771 99.7632C48.2613 99.7632 47.8101 99.9297 47.5236 100.263C47.2372 100.596 47.0939 101.145 47.0939 101.912V105H46.2023V99.1133H46.9274L47.0725 99.9189H47.1154C47.298 99.6289 47.5541 99.4051 47.8835 99.2476C48.2129 99.0864 48.5799 99.0059 48.9846 99.0059C49.6936 99.0059 50.2271 99.1777 50.5852 99.5215C50.9432 99.8617 51.1223 100.408 51.1223 101.16V105H50.2307ZM58.6271 99.1133V99.6772L57.5367 99.8062C57.637 99.9315 57.7265 100.096 57.8053 100.3C57.8841 100.501 57.9234 100.728 57.9234 100.982C57.9234 101.559 57.7265 102.019 57.3326 102.363C56.9387 102.707 56.398 102.878 55.7105 102.878C55.5351 102.878 55.3704 102.864 55.2164 102.835C54.8369 103.036 54.6471 103.288 54.6471 103.593C54.6471 103.754 54.7133 103.874 54.8458 103.953C54.9783 104.028 55.2057 104.065 55.5279 104.065H56.5699C57.2073 104.065 57.6961 104.2 58.0362 104.468C58.38 104.737 58.5519 105.127 58.5519 105.639C58.5519 106.291 58.2905 106.787 57.7677 107.127C57.2449 107.471 56.4822 107.643 55.4796 107.643C54.7097 107.643 54.1153 107.499 53.6964 107.213C53.281 106.926 53.0733 106.522 53.0733 105.999C53.0733 105.641 53.1879 105.331 53.4171 105.07C53.6463 104.808 53.9685 104.631 54.3839 104.538C54.2335 104.47 54.1064 104.364 54.0025 104.221C53.9023 104.078 53.8521 103.911 53.8521 103.722C53.8521 103.507 53.9094 103.319 54.024 103.158C54.1386 102.997 54.3194 102.841 54.5665 102.69C54.2621 102.565 54.0133 102.352 53.8199 102.051C53.6301 101.75 53.5353 101.407 53.5353 101.02C53.5353 100.375 53.7286 99.8796 54.1153 99.5322C54.5021 99.1813 55.0499 99.0059 55.7589 99.0059C56.0668 99.0059 56.3443 99.0417 56.5914 99.1133H58.6271ZM53.9327 105.988C53.9327 106.307 54.067 106.549 54.3355 106.713C54.6041 106.878 54.989 106.96 55.4903 106.96C56.2387 106.96 56.7919 106.848 57.15 106.622C57.5117 106.4 57.6925 106.097 57.6925 105.714C57.6925 105.396 57.594 105.174 57.3971 105.048C57.2001 104.927 56.8295 104.866 56.2853 104.866H55.2164C54.8118 104.866 54.4967 104.962 54.2711 105.156C54.0455 105.349 53.9327 105.627 53.9327 105.988ZM54.4161 100.999C54.4161 101.41 54.5325 101.722 54.7652 101.933C54.998 102.144 55.322 102.25 55.7374 102.25C56.6075 102.25 57.0426 101.827 57.0426 100.982C57.0426 100.098 56.6021 99.6558 55.7213 99.6558C55.3023 99.6558 54.9801 99.7686 54.7545 99.9941C54.5289 100.22 54.4161 100.555 54.4161 100.999ZM66.8798 105.107C66.0097 105.107 65.3222 104.842 64.8173 104.312C64.316 103.783 64.0653 103.047 64.0653 102.105C64.0653 101.156 64.2981 100.402 64.7636 99.8438C65.2326 99.2852 65.8611 99.0059 66.6488 99.0059C67.3865 99.0059 67.9701 99.2493 68.3998 99.7363C68.8295 100.22 69.0443 100.859 69.0443 101.654V102.218H64.9892C65.0071 102.909 65.1807 103.433 65.5102 103.792C65.8432 104.15 66.3104 104.329 66.912 104.329C67.5458 104.329 68.1724 104.196 68.7919 103.931V104.726C68.4768 104.862 68.1778 104.959 67.8949 105.016C67.6156 105.077 67.2772 105.107 66.8798 105.107ZM66.6381 99.7524C66.1654 99.7524 65.7877 99.9064 65.5048 100.214C65.2255 100.522 65.0608 100.948 65.0106 101.493H68.0883C68.0883 100.931 67.963 100.501 67.7123 100.204C67.4617 99.9028 67.1036 99.7524 66.6381 99.7524ZM72.3113 105H71.4197V96.6426H72.3113V105ZM75.9436 105H75.052V99.1133H75.9436V105ZM74.9768 97.5181C74.9768 97.314 75.0269 97.1654 75.1272 97.0723C75.2274 96.9756 75.3527 96.9272 75.5031 96.9272C75.6464 96.9272 75.7699 96.9756 75.8737 97.0723C75.9776 97.1689 76.0295 97.3175 76.0295 97.5181C76.0295 97.7186 75.9776 97.869 75.8737 97.9692C75.7699 98.0659 75.6464 98.1143 75.5031 98.1143C75.3527 98.1143 75.2274 98.0659 75.1272 97.9692C75.0269 97.869 74.9768 97.7186 74.9768 97.5181ZM80.5855 104.372C80.7431 104.372 80.8953 104.361 81.0421 104.339C81.1889 104.314 81.3053 104.289 81.3912 104.264V104.946C81.2945 104.993 81.1513 105.03 80.9615 105.059C80.7753 105.091 80.607 105.107 80.4566 105.107C79.318 105.107 78.7486 104.508 78.7486 103.308V99.8062H77.9054V99.3765L78.7486 99.0059L79.1246 97.749H79.6402V99.1133H81.3482V99.8062H79.6402V103.271C79.6402 103.625 79.7244 103.897 79.8927 104.087C80.061 104.277 80.2919 104.372 80.5855 104.372ZM84.3574 103.722L84.438 103.845C84.3449 104.203 84.2106 104.619 84.0352 105.091C83.8597 105.568 83.6771 106.01 83.4873 106.418H82.8159C82.9126 106.046 83.0182 105.585 83.1328 105.038C83.251 104.49 83.3333 104.051 83.3799 103.722H84.3574ZM94.4739 103.394C94.4739 103.942 94.2698 104.364 93.8616 104.662C93.4534 104.959 92.8805 105.107 92.1429 105.107C91.3623 105.107 90.7535 104.984 90.3167 104.737V103.91C90.5996 104.053 90.9021 104.166 91.2244 104.248C91.5503 104.33 91.8636 104.372 92.1644 104.372C92.6298 104.372 92.9879 104.298 93.2386 104.151C93.4892 104.001 93.6145 103.774 93.6145 103.469C93.6145 103.24 93.5143 103.045 93.3138 102.884C93.1168 102.719 92.7301 102.526 92.1536 102.304C91.6058 102.1 91.2155 101.922 90.9827 101.772C90.7535 101.618 90.5817 101.444 90.4671 101.251C90.3561 101.058 90.3006 100.827 90.3006 100.558C90.3006 100.078 90.4957 99.7005 90.886 99.4248C91.2763 99.1455 91.8117 99.0059 92.492 99.0059C93.1258 99.0059 93.7452 99.1348 94.3504 99.3926L94.0335 100.118C93.4427 99.8742 92.9074 99.7524 92.4275 99.7524C92.005 99.7524 91.6863 99.8187 91.4715 99.9512C91.2566 100.084 91.1492 100.266 91.1492 100.499C91.1492 100.657 91.1886 100.791 91.2674 100.902C91.3497 101.013 91.4804 101.118 91.6595 101.219C91.8385 101.319 92.1823 101.464 92.6907 101.654C93.389 101.908 93.8598 102.164 94.1033 102.422C94.3504 102.68 94.4739 103.004 94.4739 103.394ZM99.2663 105.107C98.3962 105.107 97.7087 104.842 97.2038 104.312C96.7025 103.783 96.4519 103.047 96.4519 102.105C96.4519 101.156 96.6846 100.402 97.1501 99.8438C97.6192 99.2852 98.2476 99.0059 99.0354 99.0059C99.773 99.0059 100.357 99.2493 100.786 99.7363C101.216 100.22 101.431 100.859 101.431 101.654V102.218H97.3757C97.3936 102.909 97.5673 103.433 97.8967 103.792C98.2297 104.15 98.697 104.329 99.2985 104.329C99.9323 104.329 100.559 104.196 101.178 103.931V104.726C100.863 104.862 100.564 104.959 100.281 105.016C100.002 105.077 99.6638 105.107 99.2663 105.107ZM99.0246 99.7524C98.552 99.7524 98.1742 99.9064 97.8913 100.214C97.612 100.522 97.4473 100.948 97.3972 101.493H100.475C100.475 100.931 100.349 100.501 100.099 100.204C99.8482 99.9028 99.4901 99.7524 99.0246 99.7524ZM107.813 104.21H107.765C107.353 104.808 106.737 105.107 105.917 105.107C105.147 105.107 104.547 104.844 104.118 104.318C103.692 103.792 103.479 103.043 103.479 102.073C103.479 101.102 103.693 100.349 104.123 99.8115C104.553 99.2744 105.151 99.0059 105.917 99.0059C106.716 99.0059 107.328 99.2959 107.754 99.876H107.824L107.786 99.4517L107.765 99.0381V96.6426H108.656V105H107.931L107.813 104.21ZM106.03 104.361C106.639 104.361 107.079 104.196 107.351 103.867C107.627 103.534 107.765 102.998 107.765 102.261V102.073C107.765 101.238 107.625 100.644 107.346 100.29C107.07 99.9315 106.628 99.7524 106.019 99.7524C105.496 99.7524 105.095 99.9565 104.816 100.365C104.54 100.769 104.402 101.342 104.402 102.083C104.402 102.835 104.54 103.403 104.816 103.786C105.092 104.169 105.496 104.361 106.03 104.361ZM119.117 104.21H119.068C118.656 104.808 118.041 105.107 117.221 105.107C116.451 105.107 115.851 104.844 115.421 104.318C114.995 103.792 114.782 103.043 114.782 102.073C114.782 101.102 114.997 100.349 115.427 99.8115C115.856 99.2744 116.454 99.0059 117.221 99.0059C118.019 99.0059 118.631 99.2959 119.058 99.876H119.127L119.09 99.4517L119.068 99.0381V96.6426H119.96V105H119.235L119.117 104.21ZM117.333 104.361C117.942 104.361 118.383 104.196 118.655 103.867C118.93 103.534 119.068 102.998 119.068 102.261V102.073C119.068 101.238 118.929 100.644 118.649 100.29C118.374 99.9315 117.931 99.7524 117.323 99.7524C116.8 99.7524 116.399 99.9565 116.12 100.365C115.844 100.769 115.706 101.342 115.706 102.083C115.706 102.835 115.844 103.403 116.12 103.786C116.395 104.169 116.8 104.361 117.333 104.361ZM123.597 105H122.706V99.1133H123.597V105ZM122.631 97.5181C122.631 97.314 122.681 97.1654 122.781 97.0723C122.881 96.9756 123.007 96.9272 123.157 96.9272C123.3 96.9272 123.424 96.9756 123.528 97.0723C123.631 97.1689 123.683 97.3175 123.683 97.5181C123.683 97.7186 123.631 97.869 123.528 97.9692C123.424 98.0659 123.3 98.1143 123.157 98.1143C123.007 98.1143 122.881 98.0659 122.781 97.9692C122.681 97.869 122.631 97.7186 122.631 97.5181ZM129.958 105L129.781 104.162H129.738C129.444 104.531 129.151 104.782 128.857 104.914C128.567 105.043 128.204 105.107 127.767 105.107C127.183 105.107 126.725 104.957 126.392 104.656C126.062 104.355 125.898 103.928 125.898 103.373C125.898 102.184 126.848 101.561 128.75 101.503L129.749 101.471V101.106C129.749 100.644 129.648 100.304 129.448 100.085C129.251 99.8634 128.934 99.7524 128.497 99.7524C128.007 99.7524 127.452 99.9028 126.832 100.204L126.558 99.5215C126.848 99.3639 127.165 99.2404 127.509 99.1509C127.856 99.0614 128.204 99.0166 128.551 99.0166C129.253 99.0166 129.772 99.1724 130.109 99.4839C130.449 99.7954 130.619 100.295 130.619 100.982V105H129.958ZM127.944 104.372C128.499 104.372 128.934 104.219 129.249 103.915C129.568 103.611 129.727 103.185 129.727 102.637V102.105L128.836 102.143C128.127 102.168 127.615 102.279 127.3 102.476C126.988 102.669 126.832 102.972 126.832 103.383C126.832 103.706 126.929 103.951 127.122 104.119C127.319 104.287 127.593 104.372 127.944 104.372ZM140.815 105V101.17C140.815 100.701 140.714 100.35 140.514 100.118C140.313 99.8813 140.002 99.7632 139.579 99.7632C139.024 99.7632 138.614 99.9225 138.349 100.241C138.084 100.56 137.952 101.05 137.952 101.713V105H137.06V101.17C137.06 100.701 136.96 100.35 136.759 100.118C136.559 99.8813 136.246 99.7632 135.819 99.7632C135.261 99.7632 134.851 99.9315 134.589 100.268C134.332 100.601 134.203 101.149 134.203 101.912V105H133.311V99.1133H134.036L134.181 99.9189H134.224C134.393 99.6325 134.629 99.4087 134.933 99.2476C135.241 99.0864 135.585 99.0059 135.964 99.0059C136.885 99.0059 137.486 99.3389 137.769 100.005H137.812C137.988 99.6969 138.242 99.4535 138.575 99.2744C138.908 99.0954 139.287 99.0059 139.713 99.0059C140.379 99.0059 140.877 99.1777 141.207 99.5215C141.54 99.8617 141.706 100.408 141.706 101.16V105H140.815ZM152.134 105V101.192C152.134 100.712 152.025 100.354 151.807 100.118C151.588 99.8813 151.246 99.7632 150.781 99.7632C150.165 99.7632 149.714 99.9297 149.427 100.263C149.141 100.596 148.997 101.145 148.997 101.912V105H148.106V99.1133H148.831L148.976 99.9189H149.019C149.202 99.6289 149.458 99.4051 149.787 99.2476C150.116 99.0864 150.483 99.0059 150.888 99.0059C151.597 99.0059 152.131 99.1777 152.489 99.5215C152.847 99.8617 153.026 100.408 153.026 101.16V105H152.134ZM160.794 102.051C160.794 103.011 160.552 103.761 160.069 104.302C159.585 104.839 158.917 105.107 158.065 105.107C157.539 105.107 157.072 104.984 156.663 104.737C156.255 104.49 155.94 104.135 155.718 103.673C155.496 103.211 155.385 102.671 155.385 102.051C155.385 101.092 155.625 100.345 156.105 99.8115C156.585 99.2744 157.251 99.0059 158.103 99.0059C158.926 99.0059 159.58 99.2798 160.063 99.8276C160.55 100.375 160.794 101.117 160.794 102.051ZM156.309 102.051C156.309 102.803 156.459 103.376 156.76 103.77C157.061 104.164 157.503 104.361 158.087 104.361C158.67 104.361 159.113 104.166 159.413 103.775C159.718 103.382 159.87 102.807 159.87 102.051C159.87 101.303 159.718 100.735 159.413 100.349C159.113 99.9583 158.667 99.7632 158.076 99.7632C157.492 99.7632 157.052 99.9548 156.755 100.338C156.457 100.721 156.309 101.292 156.309 102.051ZM167.24 105V101.192C167.24 100.712 167.131 100.354 166.913 100.118C166.694 99.8813 166.352 99.7632 165.887 99.7632C165.271 99.7632 164.82 99.9297 164.533 100.263C164.247 100.596 164.104 101.145 164.104 101.912V105H163.212V99.1133H163.937L164.082 99.9189H164.125C164.308 99.6289 164.564 99.4051 164.893 99.2476C165.223 99.0864 165.59 99.0059 165.994 99.0059C166.703 99.0059 167.237 99.1777 167.595 99.5215C167.953 99.8617 168.132 100.408 168.132 101.16V105H167.24ZM171.657 99.1133V102.932C171.657 103.412 171.766 103.77 171.984 104.006C172.203 104.243 172.545 104.361 173.01 104.361C173.626 104.361 174.076 104.193 174.358 103.856C174.645 103.519 174.788 102.97 174.788 102.207V99.1133H175.68V105H174.944L174.815 104.21H174.767C174.584 104.5 174.33 104.722 174.004 104.876C173.682 105.03 173.313 105.107 172.898 105.107C172.181 105.107 171.644 104.937 171.286 104.597C170.932 104.257 170.754 103.713 170.754 102.964V99.1133H171.657ZM185.929 105V101.17C185.929 100.701 185.829 100.35 185.628 100.118C185.428 99.8813 185.116 99.7632 184.694 99.7632C184.139 99.7632 183.729 99.9225 183.464 100.241C183.199 100.56 183.066 101.05 183.066 101.713V105H182.175V101.17C182.175 100.701 182.075 100.35 181.874 100.118C181.674 99.8813 181.36 99.7632 180.934 99.7632C180.375 99.7632 179.965 99.9315 179.704 100.268C179.446 100.601 179.317 101.149 179.317 101.912V105H178.426V99.1133H179.151L179.296 99.9189H179.339C179.507 99.6325 179.743 99.4087 180.048 99.2476C180.356 99.0864 180.7 99.0059 181.079 99.0059C181.999 99.0059 182.601 99.3389 182.884 100.005H182.927C183.102 99.6969 183.356 99.4535 183.689 99.2744C184.022 99.0954 184.402 99.0059 184.828 99.0059C185.494 99.0059 185.992 99.1777 186.321 99.5215C186.654 99.8617 186.821 100.408 186.821 101.16V105H185.929ZM197.017 105V101.17C197.017 100.701 196.916 100.35 196.716 100.118C196.515 99.8813 196.204 99.7632 195.781 99.7632C195.226 99.7632 194.816 99.9225 194.551 100.241C194.286 100.56 194.154 101.05 194.154 101.713V105H193.262V101.17C193.262 100.701 193.162 100.35 192.961 100.118C192.761 99.8813 192.447 99.7632 192.021 99.7632C191.463 99.7632 191.053 99.9315 190.791 100.268C190.534 100.601 190.405 101.149 190.405 101.912V105H189.513V99.1133H190.238L190.383 99.9189H190.426C190.594 99.6325 190.831 99.4087 191.135 99.2476C191.443 99.0864 191.787 99.0059 192.166 99.0059C193.087 99.0059 193.688 99.3389 193.971 100.005H194.014C194.19 99.6969 194.444 99.4535 194.777 99.2744C195.11 99.0954 195.489 99.0059 195.915 99.0059C196.581 99.0059 197.079 99.1777 197.409 99.5215C197.742 99.8617 197.908 100.408 197.908 101.16V105H197.017ZM199.666 99.1133H200.622L201.911 102.47C202.194 103.236 202.369 103.79 202.437 104.13H202.48C202.527 103.947 202.623 103.636 202.77 103.195C202.921 102.751 203.408 101.391 204.231 99.1133H205.187L202.658 105.816C202.407 106.479 202.113 106.948 201.777 107.224C201.444 107.503 201.034 107.643 200.547 107.643C200.275 107.643 200.006 107.612 199.741 107.551V106.837C199.938 106.88 200.158 106.901 200.402 106.901C201.014 106.901 201.451 106.558 201.712 105.87L202.04 105.032L199.666 99.1133ZM214.729 105V101.192C214.729 100.712 214.62 100.354 214.401 100.118C214.183 99.8813 213.841 99.7632 213.376 99.7632C212.76 99.7632 212.309 99.9297 212.022 100.263C211.736 100.596 211.592 101.145 211.592 101.912V105H210.701V99.1133H211.426L211.571 99.9189H211.614C211.796 99.6289 212.053 99.4051 212.382 99.2476C212.711 99.0864 213.078 99.0059 213.483 99.0059C214.192 99.0059 214.726 99.1777 215.084 99.5215C215.442 99.8617 215.621 100.408 215.621 101.16V105H214.729ZM219.199 105H218.308V99.1133H219.199V105ZM218.232 97.5181C218.232 97.314 218.283 97.1654 218.383 97.0723C218.483 96.9756 218.608 96.9272 218.759 96.9272C218.902 96.9272 219.026 96.9756 219.129 97.0723C219.233 97.1689 219.285 97.3175 219.285 97.5181C219.285 97.7186 219.233 97.869 219.129 97.9692C219.026 98.0659 218.902 98.1143 218.759 98.1143C218.608 98.1143 218.483 98.0659 218.383 97.9692C218.283 97.869 218.232 97.7186 218.232 97.5181ZM224.679 99.0166C225.453 99.0166 226.052 99.2816 226.478 99.8115C226.908 100.338 227.123 101.084 227.123 102.051C227.123 103.018 226.906 103.77 226.473 104.307C226.043 104.841 225.445 105.107 224.679 105.107C224.296 105.107 223.945 105.038 223.626 104.898C223.311 104.755 223.046 104.536 222.831 104.243H222.767L222.579 105H221.94V96.6426H222.831V98.6729C222.831 99.1276 222.817 99.5358 222.788 99.8975H222.831C223.247 99.3102 223.863 99.0166 224.679 99.0166ZM224.55 99.7632C223.941 99.7632 223.503 99.9386 223.234 100.29C222.966 100.637 222.831 101.224 222.831 102.051C222.831 102.878 222.969 103.471 223.245 103.829C223.521 104.184 223.963 104.361 224.572 104.361C225.12 104.361 225.528 104.162 225.796 103.765C226.065 103.364 226.199 102.789 226.199 102.041C226.199 101.274 226.065 100.703 225.796 100.327C225.528 99.9512 225.112 99.7632 224.55 99.7632ZM233.564 105V101.192C233.564 100.712 233.455 100.354 233.237 100.118C233.018 99.8813 232.676 99.7632 232.211 99.7632C231.591 99.7632 231.138 99.9315 230.852 100.268C230.569 100.605 230.428 101.156 230.428 101.922V105H229.536V96.6426H230.428V99.1724C230.428 99.4767 230.413 99.7292 230.385 99.9297H230.438C230.614 99.6468 230.863 99.4248 231.185 99.2637C231.511 99.099 231.881 99.0166 232.297 99.0166C233.016 99.0166 233.555 99.1885 233.913 99.5322C234.275 99.8724 234.456 100.415 234.456 101.16V105H233.564ZM3.43213 124.107C2.56201 124.107 1.87451 123.842 1.36963 123.312C0.868327 122.783 0.617676 122.047 0.617676 121.105C0.617676 120.156 0.850423 119.402 1.31592 118.844C1.78499 118.285 2.41341 118.006 3.20117 118.006C3.9388 118.006 4.52246 118.249 4.95215 118.736C5.38184 119.22 5.59668 119.859 5.59668 120.654V121.218H1.5415C1.55941 121.909 1.73307 122.433 2.0625 122.792C2.39551 123.15 2.86279 123.329 3.46436 123.329C4.09814 123.329 4.72477 123.196 5.34424 122.931V123.726C5.02913 123.862 4.73014 123.959 4.44727 124.016C4.16797 124.077 3.82959 124.107 3.43213 124.107ZM3.19043 118.752C2.71777 118.752 2.34001 118.906 2.05713 119.214C1.77783 119.522 1.61312 119.948 1.56299 120.493H4.64062C4.64062 119.931 4.5153 119.501 4.26465 119.204C4.014 118.903 3.65592 118.752 3.19043 118.752ZM8.80996 118.113V121.932C8.80996 122.412 8.91917 122.77 9.1376 123.006C9.35602 123.243 9.69798 123.361 10.1635 123.361C10.7794 123.361 11.2287 123.193 11.5116 122.856C11.7981 122.519 11.9413 121.97 11.9413 121.207V118.113H12.8329V124H12.0971L11.9682 123.21H11.9198C11.7372 123.5 11.483 123.722 11.1571 123.876C10.8349 124.03 10.466 124.107 10.0507 124.107C9.33454 124.107 8.79743 123.937 8.43936 123.597C8.08486 123.257 7.90762 122.713 7.90762 121.964V118.113H8.80996ZM16.4705 124H15.5789V118.113H16.4705V124ZM15.5037 116.518C15.5037 116.314 15.5538 116.165 15.6541 116.072C15.7544 115.976 15.8797 115.927 16.0301 115.927C16.1733 115.927 16.2968 115.976 16.4007 116.072C16.5045 116.169 16.5564 116.318 16.5564 116.518C16.5564 116.719 16.5045 116.869 16.4007 116.969C16.2968 117.066 16.1733 117.114 16.0301 117.114C15.8797 117.114 15.7544 117.066 15.6541 116.969C15.5538 116.869 15.5037 116.719 15.5037 116.518ZM23.0085 122.394C23.0085 122.942 22.8044 123.364 22.3962 123.662C21.988 123.959 21.4151 124.107 20.6774 124.107C19.8968 124.107 19.2881 123.984 18.8513 123.737V122.91C19.1341 123.053 19.4367 123.166 19.759 123.248C20.0848 123.33 20.3981 123.372 20.6989 123.372C21.1644 123.372 21.5225 123.298 21.7731 123.151C22.0238 123.001 22.1491 122.774 22.1491 122.469C22.1491 122.24 22.0489 122.045 21.8483 121.884C21.6514 121.719 21.2647 121.526 20.6882 121.304C20.1403 121.1 19.75 120.922 19.5173 120.772C19.2881 120.618 19.1162 120.444 19.0017 120.251C18.8907 120.058 18.8352 119.827 18.8352 119.558C18.8352 119.078 19.0303 118.701 19.4206 118.425C19.8109 118.146 20.3462 118.006 21.0266 118.006C21.6604 118.006 22.2798 118.135 22.885 118.393L22.5681 119.118C21.9772 118.874 21.4419 118.752 20.9621 118.752C20.5396 118.752 20.2209 118.819 20.0061 118.951C19.7912 119.084 19.6838 119.266 19.6838 119.499C19.6838 119.657 19.7232 119.791 19.802 119.902C19.8843 120.013 20.015 120.118 20.194 120.219C20.3731 120.319 20.7168 120.464 21.2253 120.654C21.9235 120.908 22.3944 121.164 22.6379 121.422C22.885 121.68 23.0085 122.004 23.0085 122.394ZM32.8175 124V120.17C32.8175 119.701 32.7172 119.35 32.5167 119.118C32.3162 118.881 32.0047 118.763 31.5821 118.763C31.0271 118.763 30.6171 118.923 30.3521 119.241C30.0872 119.56 29.9547 120.05 29.9547 120.713V124H29.0631V120.17C29.0631 119.701 28.9628 119.35 28.7623 119.118C28.5618 118.881 28.2485 118.763 27.8224 118.763C27.2638 118.763 26.8538 118.931 26.5924 119.268C26.3346 119.601 26.2057 120.149 26.2057 120.912V124H25.3141V118.113H26.0392L26.1842 118.919H26.2271C26.3954 118.632 26.6318 118.409 26.9361 118.248C27.2441 118.086 27.5878 118.006 27.9674 118.006C28.8876 118.006 29.4892 118.339 29.7721 119.005H29.815C29.9905 118.697 30.2447 118.453 30.5777 118.274C30.9107 118.095 31.2903 118.006 31.7164 118.006C32.3824 118.006 32.8801 118.178 33.2096 118.521C33.5426 118.862 33.7091 119.408 33.7091 120.16V124H32.8175ZM41.4824 121.051C41.4824 122.011 41.2407 122.761 40.7573 123.302C40.2739 123.839 39.6061 124.107 38.7539 124.107C38.2275 124.107 37.7603 123.984 37.3521 123.737C36.9438 123.49 36.6287 123.135 36.4067 122.673C36.1847 122.211 36.0737 121.671 36.0737 121.051C36.0737 120.092 36.3136 119.345 36.7935 118.812C37.2733 118.274 37.9393 118.006 38.7915 118.006C39.6151 118.006 40.2686 118.28 40.752 118.828C41.2389 119.375 41.4824 120.117 41.4824 121.051ZM36.9976 121.051C36.9976 121.803 37.1479 122.376 37.4487 122.77C37.7495 123.164 38.1917 123.361 38.7754 123.361C39.359 123.361 39.8013 123.166 40.1021 122.775C40.4064 122.382 40.5586 121.807 40.5586 121.051C40.5586 120.303 40.4064 119.735 40.1021 119.349C39.8013 118.958 39.3555 118.763 38.7646 118.763C38.181 118.763 37.7406 118.955 37.4434 119.338C37.1462 119.721 36.9976 120.292 36.9976 121.051ZM47.9076 123.21H47.8593C47.4475 123.808 46.8316 124.107 46.0116 124.107C45.2418 124.107 44.642 123.844 44.2123 123.318C43.7862 122.792 43.5731 122.043 43.5731 121.073C43.5731 120.102 43.788 119.349 44.2177 118.812C44.6474 118.274 45.2453 118.006 46.0116 118.006C46.8101 118.006 47.4224 118.296 47.8485 118.876H47.9184L47.8808 118.452L47.8593 118.038V115.643H48.7509V124H48.0258L47.9076 123.21ZM46.1244 123.361C46.7331 123.361 47.1736 123.196 47.4457 122.867C47.7214 122.534 47.8593 121.998 47.8593 121.261V121.073C47.8593 120.238 47.7196 119.644 47.4403 119.29C47.1646 118.931 46.7224 118.752 46.1137 118.752C45.5909 118.752 45.1898 118.957 44.9105 119.365C44.6348 119.769 44.497 120.342 44.497 121.083C44.497 121.835 44.6348 122.403 44.9105 122.786C45.1863 123.169 45.5909 123.361 46.1244 123.361ZM57.1057 123.372C57.2632 123.372 57.4154 123.361 57.5622 123.339C57.709 123.314 57.8254 123.289 57.9113 123.264V123.946C57.8146 123.993 57.6714 124.03 57.4816 124.059C57.2954 124.091 57.1271 124.107 56.9768 124.107C55.8381 124.107 55.2687 123.508 55.2687 122.308V118.806H54.4255V118.376L55.2687 118.006L55.6447 116.749H56.1604V118.113H57.8684V118.806H56.1604V122.271C56.1604 122.625 56.2445 122.897 56.4128 123.087C56.5811 123.277 56.812 123.372 57.1057 123.372ZM60.8346 124H59.943V118.113H60.8346V124ZM59.8678 116.518C59.8678 116.314 59.9179 116.165 60.0182 116.072C60.1184 115.976 60.2438 115.927 60.3941 115.927C60.5374 115.927 60.6609 115.976 60.7647 116.072C60.8686 116.169 60.9205 116.318 60.9205 116.518C60.9205 116.719 60.8686 116.869 60.7647 116.969C60.6609 117.066 60.5374 117.114 60.3941 117.114C60.2438 117.114 60.1184 117.066 60.0182 116.969C59.9179 116.869 59.8678 116.719 59.8678 116.518ZM67.6035 124V120.192C67.6035 119.712 67.4943 119.354 67.2759 119.118C67.0575 118.881 66.7155 118.763 66.25 118.763C65.6341 118.763 65.1829 118.93 64.8965 119.263C64.61 119.596 64.4668 120.145 64.4668 120.912V124H63.5752V118.113H64.3003L64.4453 118.919H64.4883C64.6709 118.629 64.9269 118.405 65.2563 118.248C65.5858 118.086 65.9528 118.006 66.3574 118.006C67.0664 118.006 67.5999 118.178 67.958 118.521C68.3161 118.862 68.4951 119.408 68.4951 120.16V124H67.6035ZM73.5346 124.107C72.6824 124.107 72.0217 123.846 71.5526 123.323C71.0871 122.797 70.8544 122.054 70.8544 121.094C70.8544 120.11 71.0907 119.349 71.5634 118.812C72.0396 118.274 72.7164 118.006 73.5937 118.006C73.8765 118.006 74.1594 118.036 74.4423 118.097C74.7252 118.158 74.9472 118.23 75.1083 118.312L74.8344 119.069C74.6374 118.991 74.4226 118.926 74.1898 118.876C73.9571 118.822 73.7512 118.795 73.5722 118.795C72.3762 118.795 71.7782 119.558 71.7782 121.083C71.7782 121.807 71.9232 122.362 72.2133 122.749C72.5069 123.135 72.9402 123.329 73.5131 123.329C74.0036 123.329 74.5067 123.223 75.0224 123.012V123.801C74.6285 124.005 74.1326 124.107 73.5346 124.107ZM78.1658 124H77.2742V118.113H78.1658V124ZM77.199 116.518C77.199 116.314 77.2492 116.165 77.3494 116.072C77.4497 115.976 77.575 115.927 77.7254 115.927C77.8686 115.927 77.9922 115.976 78.096 116.072C78.1998 116.169 78.2518 116.318 78.2518 116.518C78.2518 116.719 78.1998 116.869 78.096 116.969C77.9922 117.066 77.8686 117.114 77.7254 117.114C77.575 117.114 77.4497 117.066 77.3494 116.969C77.2492 116.869 77.199 116.719 77.199 116.518ZM84.9133 123.21H84.8649C84.4532 123.808 83.8373 124.107 83.0173 124.107C82.2474 124.107 81.6477 123.844 81.218 123.318C80.7919 122.792 80.5788 122.043 80.5788 121.073C80.5788 120.102 80.7937 119.349 81.2233 118.812C81.653 118.274 82.251 118.006 83.0173 118.006C83.8158 118.006 84.4281 118.296 84.8542 118.876H84.924L84.8864 118.452L84.8649 118.038V115.643H85.7565V124H85.0314L84.9133 123.21ZM83.1301 123.361C83.7388 123.361 84.1792 123.196 84.4514 122.867C84.7271 122.534 84.8649 121.998 84.8649 121.261V121.073C84.8649 120.238 84.7253 119.644 84.446 119.29C84.1703 118.931 83.7281 118.752 83.1193 118.752C82.5966 118.752 82.1955 118.957 81.9162 119.365C81.6405 119.769 81.5026 120.342 81.5026 121.083C81.5026 121.835 81.6405 122.403 81.9162 122.786C82.1919 123.169 82.5966 123.361 83.1301 123.361ZM89.3404 118.113V121.932C89.3404 122.412 89.4496 122.77 89.6681 123.006C89.8865 123.243 90.2285 123.361 90.6939 123.361C91.3098 123.361 91.7592 123.193 92.0421 122.856C92.3285 122.519 92.4718 121.97 92.4718 121.207V118.113H93.3634V124H92.6275L92.4986 123.21H92.4503C92.2677 123.5 92.0134 123.722 91.6876 123.876C91.3653 124.03 90.9965 124.107 90.5812 124.107C89.865 124.107 89.3279 123.937 88.9698 123.597C88.6153 123.257 88.4381 122.713 88.4381 121.964V118.113H89.3404ZM100.138 124V120.192C100.138 119.712 100.028 119.354 99.8101 119.118C99.5916 118.881 99.2497 118.763 98.7842 118.763C98.1683 118.763 97.7171 118.93 97.4307 119.263C97.1442 119.596 97.001 120.145 97.001 120.912V124H96.1094V118.113H96.8345L96.9795 118.919H97.0225C97.2051 118.629 97.4611 118.405 97.7905 118.248C98.12 118.086 98.487 118.006 98.8916 118.006C99.6006 118.006 100.134 118.178 100.492 118.521C100.85 118.862 101.029 119.408 101.029 120.16V124H100.138ZM105.618 123.372C105.775 123.372 105.927 123.361 106.074 123.339C106.221 123.314 106.337 123.289 106.423 123.264V123.946C106.327 123.993 106.183 124.03 105.994 124.059C105.807 124.091 105.639 124.107 105.489 124.107C104.35 124.107 103.781 123.508 103.781 122.308V118.806H102.937V118.376L103.781 118.006L104.157 116.749H104.672V118.113H106.38V118.806H104.672V122.271C104.672 122.625 104.756 122.897 104.925 123.087C105.093 123.277 105.324 123.372 105.618 123.372ZM113 118.113V121.932C113 122.412 113.109 122.77 113.328 123.006C113.546 123.243 113.888 123.361 114.354 123.361C114.97 123.361 115.419 123.193 115.702 122.856C115.988 122.519 116.132 121.97 116.132 121.207V118.113H117.023V124H116.287L116.158 123.21H116.11C115.927 123.5 115.673 123.722 115.347 123.876C115.025 124.03 114.656 124.107 114.241 124.107C113.525 124.107 112.988 123.937 112.63 123.597C112.275 123.257 112.098 122.713 112.098 121.964V118.113H113ZM121.671 123.372C121.828 123.372 121.98 123.361 122.127 123.339C122.274 123.314 122.39 123.289 122.476 123.264V123.946C122.379 123.993 122.236 124.03 122.046 124.059C121.86 124.091 121.692 124.107 121.542 124.107C120.403 124.107 119.834 123.508 119.834 122.308V118.806H118.99V118.376L119.834 118.006L120.21 116.749H120.725V118.113H122.433V118.806H120.725V122.271C120.725 122.625 120.809 122.897 120.978 123.087C121.146 123.277 121.377 123.372 121.671 123.372ZM129.107 124H128.215V115.643H129.107V124ZM135.468 124L135.29 123.162H135.247C134.954 123.531 134.66 123.782 134.367 123.914C134.076 124.043 133.713 124.107 133.276 124.107C132.693 124.107 132.234 123.957 131.901 123.656C131.572 123.355 131.407 122.928 131.407 122.373C131.407 121.184 132.358 120.561 134.259 120.503L135.258 120.471V120.106C135.258 119.644 135.158 119.304 134.957 119.085C134.76 118.863 134.443 118.752 134.007 118.752C133.516 118.752 132.961 118.903 132.342 119.204L132.068 118.521C132.358 118.364 132.675 118.24 133.018 118.151C133.366 118.061 133.713 118.017 134.06 118.017C134.762 118.017 135.281 118.172 135.618 118.484C135.958 118.795 136.128 119.295 136.128 119.982V124H135.468ZM133.453 123.372C134.008 123.372 134.443 123.219 134.759 122.915C135.077 122.611 135.237 122.185 135.237 121.637V121.105L134.345 121.143C133.636 121.168 133.124 121.279 132.809 121.476C132.497 121.669 132.342 121.972 132.342 122.383C132.342 122.706 132.438 122.951 132.632 123.119C132.829 123.287 133.103 123.372 133.453 123.372ZM143.902 121.051C143.902 122.011 143.66 122.761 143.176 123.302C142.693 123.839 142.025 124.107 141.173 124.107C140.647 124.107 140.179 123.984 139.771 123.737C139.363 123.49 139.048 123.135 138.826 122.673C138.604 122.211 138.493 121.671 138.493 121.051C138.493 120.092 138.733 119.345 139.213 118.812C139.692 118.274 140.358 118.006 141.211 118.006C142.034 118.006 142.688 118.28 143.171 118.828C143.658 119.375 143.902 120.117 143.902 121.051ZM139.417 121.051C139.417 121.803 139.567 122.376 139.868 122.77C140.169 123.164 140.611 123.361 141.195 123.361C141.778 123.361 142.22 123.166 142.521 122.775C142.826 122.382 142.978 121.807 142.978 121.051C142.978 120.303 142.826 119.735 142.521 119.349C142.22 118.958 141.775 118.763 141.184 118.763C140.6 118.763 140.16 118.955 139.863 119.338C139.565 119.721 139.417 120.292 139.417 121.051ZM149.005 118.006C149.267 118.006 149.501 118.027 149.709 118.07L149.586 118.897C149.342 118.844 149.127 118.817 148.941 118.817C148.465 118.817 148.057 119.01 147.716 119.397C147.38 119.784 147.212 120.265 147.212 120.842V124H146.32V118.113H147.056L147.158 119.204H147.201C147.419 118.82 147.682 118.525 147.99 118.317C148.298 118.11 148.637 118.006 149.005 118.006ZM154.147 124.107C153.277 124.107 152.589 123.842 152.084 123.312C151.583 122.783 151.333 122.047 151.333 121.105C151.333 120.156 151.565 119.402 152.031 118.844C152.5 118.285 153.128 118.006 153.916 118.006C154.654 118.006 155.237 118.249 155.667 118.736C156.097 119.22 156.312 119.859 156.312 120.654V121.218H152.256C152.274 121.909 152.448 122.433 152.777 122.792C153.11 123.15 153.578 123.329 154.179 123.329C154.813 123.329 155.44 123.196 156.059 122.931V123.726C155.744 123.862 155.445 123.959 155.162 124.016C154.883 124.077 154.544 124.107 154.147 124.107ZM153.905 118.752C153.433 118.752 153.055 118.906 152.772 119.214C152.493 119.522 152.328 119.948 152.278 120.493H155.355C155.355 119.931 155.23 119.501 154.979 119.204C154.729 118.903 154.371 118.752 153.905 118.752ZM161.174 124.107C160.304 124.107 159.616 123.842 159.111 123.312C158.61 122.783 158.359 122.047 158.359 121.105C158.359 120.156 158.592 119.402 159.058 118.844C159.527 118.285 160.155 118.006 160.943 118.006C161.68 118.006 162.264 118.249 162.694 118.736C163.123 119.22 163.338 119.859 163.338 120.654V121.218H159.283C159.301 121.909 159.475 122.433 159.804 122.792C160.137 123.15 160.604 123.329 161.206 123.329C161.84 123.329 162.466 123.196 163.086 122.931V123.726C162.771 123.862 162.472 123.959 162.189 124.016C161.91 124.077 161.571 124.107 161.174 124.107ZM160.932 118.752C160.459 118.752 160.082 118.906 159.799 119.214C159.519 119.522 159.355 119.948 159.305 120.493H162.382C162.382 119.931 162.257 119.501 162.006 119.204C161.756 118.903 161.398 118.752 160.932 118.752ZM167.615 123.372C167.773 123.372 167.925 123.361 168.072 123.339C168.218 123.314 168.335 123.289 168.421 123.264V123.946C168.324 123.993 168.181 124.03 167.991 124.059C167.805 124.091 167.637 124.107 167.486 124.107C166.347 124.107 165.778 123.508 165.778 122.308V118.806H164.935V118.376L165.778 118.006L166.154 116.749H166.67V118.113H168.378V118.806H166.67V122.271C166.67 122.625 166.754 122.897 166.922 123.087C167.09 123.277 167.321 123.372 167.615 123.372ZM178.167 123.21H178.118C177.706 123.808 177.091 124.107 176.271 124.107C175.501 124.107 174.901 123.844 174.471 123.318C174.045 122.792 173.832 122.043 173.832 121.073C173.832 120.102 174.047 119.349 174.477 118.812C174.906 118.274 175.504 118.006 176.271 118.006C177.069 118.006 177.681 118.296 178.108 118.876H178.177L178.14 118.452L178.118 118.038V115.643H179.01V124H178.285L178.167 123.21ZM176.383 123.361C176.992 123.361 177.433 123.196 177.705 122.867C177.98 122.534 178.118 121.998 178.118 121.261V121.073C178.118 120.238 177.979 119.644 177.699 119.29C177.424 118.931 176.981 118.752 176.373 118.752C175.85 118.752 175.449 118.957 175.17 119.365C174.894 119.769 174.756 120.342 174.756 121.083C174.756 121.835 174.894 122.403 175.17 122.786C175.445 123.169 175.85 123.361 176.383 123.361ZM186.837 121.051C186.837 122.011 186.595 122.761 186.112 123.302C185.628 123.839 184.961 124.107 184.108 124.107C183.582 124.107 183.115 123.984 182.707 123.737C182.298 123.49 181.983 123.135 181.761 122.673C181.539 122.211 181.428 121.671 181.428 121.051C181.428 120.092 181.668 119.345 182.148 118.812C182.628 118.274 183.294 118.006 184.146 118.006C184.97 118.006 185.623 118.28 186.106 118.828C186.593 119.375 186.837 120.117 186.837 121.051ZM182.352 121.051C182.352 121.803 182.502 122.376 182.803 122.77C183.104 123.164 183.546 123.361 184.13 123.361C184.714 123.361 185.156 123.166 185.457 122.775C185.761 122.382 185.913 121.807 185.913 121.051C185.913 120.303 185.761 119.735 185.457 119.349C185.156 118.958 184.71 118.763 184.119 118.763C183.535 118.763 183.095 118.955 182.798 119.338C182.501 119.721 182.352 120.292 182.352 121.051ZM190.147 124H189.255V115.643H190.147V124ZM197.969 121.051C197.969 122.011 197.727 122.761 197.243 123.302C196.76 123.839 196.092 124.107 195.24 124.107C194.714 124.107 194.246 123.984 193.838 123.737C193.43 123.49 193.115 123.135 192.893 122.673C192.671 122.211 192.56 121.671 192.56 121.051C192.56 120.092 192.8 119.345 193.28 118.812C193.759 118.274 194.425 118.006 195.278 118.006C196.101 118.006 196.755 118.28 197.238 118.828C197.725 119.375 197.969 120.117 197.969 121.051ZM193.484 121.051C193.484 121.803 193.634 122.376 193.935 122.77C194.236 123.164 194.678 123.361 195.262 123.361C195.845 123.361 196.287 123.166 196.588 122.775C196.893 122.382 197.045 121.807 197.045 121.051C197.045 120.303 196.893 119.735 196.588 119.349C196.287 118.958 195.842 118.763 195.251 118.763C194.667 118.763 194.227 118.955 193.929 119.338C193.632 119.721 193.484 120.292 193.484 121.051ZM203.072 118.006C203.334 118.006 203.568 118.027 203.776 118.07L203.653 118.897C203.409 118.844 203.194 118.817 203.008 118.817C202.532 118.817 202.124 119.01 201.783 119.397C201.447 119.784 201.279 120.265 201.279 120.842V124H200.387V118.113H201.123L201.225 119.204H201.268C201.486 118.82 201.749 118.525 202.057 118.317C202.365 118.11 202.704 118.006 203.072 118.006ZM208.214 124.107C207.344 124.107 206.656 123.842 206.151 123.312C205.65 122.783 205.4 122.047 205.4 121.105C205.4 120.156 205.632 119.402 206.098 118.844C206.567 118.285 207.195 118.006 207.983 118.006C208.721 118.006 209.304 118.249 209.734 118.736C210.164 119.22 210.379 119.859 210.379 120.654V121.218H206.323C206.341 121.909 206.515 122.433 206.844 122.792C207.177 123.15 207.645 123.329 208.246 123.329C208.88 123.329 209.507 123.196 210.126 122.931V123.726C209.811 123.862 209.512 123.959 209.229 124.016C208.95 124.077 208.611 124.107 208.214 124.107ZM207.972 118.752C207.5 118.752 207.122 118.906 206.839 119.214C206.56 119.522 206.395 119.948 206.345 120.493H209.422C209.422 119.931 209.297 119.501 209.046 119.204C208.796 118.903 208.438 118.752 207.972 118.752ZM8.44873 143V139.17C8.44873 138.701 8.34847 138.35 8.14795 138.118C7.94743 137.881 7.6359 137.763 7.21338 137.763C6.65837 137.763 6.24837 137.923 5.9834 138.241C5.71842 138.56 5.58594 139.05 5.58594 139.713V143H4.69434V139.17C4.69434 138.701 4.59408 138.35 4.39355 138.118C4.19303 137.881 3.87972 137.763 3.45361 137.763C2.89502 137.763 2.48503 137.931 2.22363 138.268C1.96582 138.601 1.83691 139.149 1.83691 139.912V143H0.945312V137.113H1.67041L1.81543 137.919H1.8584C2.02669 137.632 2.26302 137.409 2.56738 137.248C2.87533 137.086 3.21908 137.006 3.59863 137.006C4.51888 137.006 5.12044 137.339 5.40332 138.005H5.44629C5.62174 137.697 5.87598 137.453 6.20898 137.274C6.54199 137.095 6.92155 137.006 7.34766 137.006C8.01367 137.006 8.51139 137.178 8.84082 137.521C9.17383 137.862 9.34033 138.408 9.34033 139.16V143H8.44873ZM15.6527 143L15.4755 142.162H15.4325C15.1389 142.531 14.8453 142.782 14.5517 142.914C14.2616 143.043 13.8982 143.107 13.4613 143.107C12.8777 143.107 12.4193 142.957 12.0863 142.656C11.7569 142.355 11.5922 141.928 11.5922 141.373C11.5922 140.184 12.5429 139.561 14.4442 139.503L15.4433 139.471V139.106C15.4433 138.644 15.343 138.304 15.1425 138.085C14.9455 137.863 14.6286 137.752 14.1918 137.752C13.7012 137.752 13.1462 137.903 12.5268 138.204L12.2528 137.521C12.5429 137.364 12.8598 137.24 13.2035 137.151C13.5508 137.061 13.8982 137.017 14.2455 137.017C14.9473 137.017 15.4665 137.172 15.8031 137.484C16.1433 137.795 16.3134 138.295 16.3134 138.982V143H15.6527ZM13.6386 142.372C14.1936 142.372 14.6286 142.219 14.9438 141.915C15.2624 141.611 15.4218 141.185 15.4218 140.637V140.105L14.5302 140.143C13.8212 140.168 13.3091 140.279 12.994 140.476C12.6825 140.669 12.5268 140.972 12.5268 141.383C12.5268 141.706 12.6234 141.951 12.8168 142.119C13.0137 142.287 13.2877 142.372 13.6386 142.372ZM23.8235 137.113V137.677L22.7332 137.806C22.8335 137.931 22.923 138.096 23.0018 138.3C23.0805 138.501 23.1199 138.728 23.1199 138.982C23.1199 139.559 22.923 140.019 22.5291 140.363C22.1352 140.707 21.5945 140.878 20.907 140.878C20.7316 140.878 20.5669 140.864 20.4129 140.835C20.0333 141.036 19.8436 141.288 19.8436 141.593C19.8436 141.754 19.9098 141.874 20.0423 141.953C20.1748 142.028 20.4021 142.065 20.7244 142.065H21.7664C22.4038 142.065 22.8925 142.2 23.2327 142.468C23.5765 142.737 23.7483 143.127 23.7483 143.639C23.7483 144.291 23.4869 144.787 22.9642 145.127C22.4414 145.471 21.6787 145.643 20.6761 145.643C19.9062 145.643 19.3118 145.499 18.8929 145.213C18.4775 144.926 18.2698 144.522 18.2698 143.999C18.2698 143.641 18.3844 143.331 18.6136 143.07C18.8427 142.808 19.165 142.631 19.5804 142.538C19.43 142.47 19.3029 142.364 19.199 142.221C19.0988 142.078 19.0486 141.911 19.0486 141.722C19.0486 141.507 19.1059 141.319 19.2205 141.158C19.3351 140.997 19.5159 140.841 19.763 140.69C19.4586 140.565 19.2098 140.352 19.0164 140.051C18.8266 139.75 18.7317 139.407 18.7317 139.02C18.7317 138.375 18.9251 137.88 19.3118 137.532C19.6985 137.181 20.2464 137.006 20.9554 137.006C21.2633 137.006 21.5408 137.042 21.7879 137.113H23.8235ZM19.1292 143.988C19.1292 144.307 19.2635 144.549 19.532 144.713C19.8006 144.878 20.1855 144.96 20.6868 144.96C21.4352 144.96 21.9884 144.848 22.3465 144.622C22.7081 144.4 22.889 144.097 22.889 143.714C22.889 143.396 22.7905 143.174 22.5936 143.048C22.3966 142.927 22.026 142.866 21.4817 142.866H20.4129C20.0083 142.866 19.6932 142.962 19.4676 143.156C19.242 143.349 19.1292 143.627 19.1292 143.988ZM19.6126 138.999C19.6126 139.41 19.729 139.722 19.9617 139.933C20.1945 140.144 20.5185 140.25 20.9339 140.25C21.804 140.25 22.2391 139.827 22.2391 138.982C22.2391 138.098 21.7986 137.656 20.9178 137.656C20.4988 137.656 20.1766 137.769 19.951 137.994C19.7254 138.22 19.6126 138.555 19.6126 138.999ZM29.9104 143V139.192C29.9104 138.712 29.8011 138.354 29.5827 138.118C29.3643 137.881 29.0223 137.763 28.5568 137.763C27.9409 137.763 27.4898 137.93 27.2033 138.263C26.9169 138.596 26.7736 139.145 26.7736 139.912V143H25.882V137.113H26.6071L26.7521 137.919H26.7951C26.9777 137.629 27.2338 137.405 27.5632 137.248C27.8926 137.086 28.2596 137.006 28.6643 137.006C29.3732 137.006 29.9068 137.178 30.2648 137.521C30.6229 137.862 30.802 138.408 30.802 139.16V143H29.9104ZM37.109 143L36.9317 142.162H36.8888C36.5952 142.531 36.3015 142.782 36.0079 142.914C35.7179 143.043 35.3544 143.107 34.9176 143.107C34.3339 143.107 33.8756 142.957 33.5426 142.656C33.2132 142.355 33.0484 141.928 33.0484 141.373C33.0484 140.184 33.9991 139.561 35.9005 139.503L36.8995 139.471V139.106C36.8995 138.644 36.7993 138.304 36.5987 138.085C36.4018 137.863 36.0849 137.752 35.648 137.752C35.1575 137.752 34.6025 137.903 33.983 138.204L33.7091 137.521C33.9991 137.364 34.316 137.24 34.6598 137.151C35.0071 137.061 35.3544 137.017 35.7018 137.017C36.4036 137.017 36.9228 137.172 37.2594 137.484C37.5995 137.795 37.7696 138.295 37.7696 138.982V143H37.109ZM35.0948 142.372C35.6498 142.372 36.0849 142.219 36.4 141.915C36.7187 141.611 36.878 141.185 36.878 140.637V140.105L35.9864 140.143C35.2774 140.168 34.7654 140.279 34.4503 140.476C34.1388 140.669 33.983 140.972 33.983 141.383C33.983 141.706 34.0797 141.951 34.273 142.119C34.47 142.287 34.7439 142.372 35.0948 142.372ZM47.7895 143L47.6122 142.162H47.5692C47.2756 142.531 46.982 142.782 46.6884 142.914C46.3983 143.043 46.0349 143.107 45.598 143.107C45.0144 143.107 44.5561 142.957 44.223 142.656C43.8936 142.355 43.7289 141.928 43.7289 141.373C43.7289 140.184 44.6796 139.561 46.581 139.503L47.58 139.471V139.106C47.58 138.644 47.4797 138.304 47.2792 138.085C47.0823 137.863 46.7654 137.752 46.3285 137.752C45.838 137.752 45.2829 137.903 44.6635 138.204L44.3895 137.521C44.6796 137.364 44.9965 137.24 45.3402 137.151C45.6876 137.061 46.0349 137.017 46.3822 137.017C47.084 137.017 47.6033 137.172 47.9398 137.484C48.28 137.795 48.4501 138.295 48.4501 138.982V143H47.7895ZM45.7753 142.372C46.3303 142.372 46.7654 142.219 47.0805 141.915C47.3992 141.611 47.5585 141.185 47.5585 140.637V140.105L46.6669 140.143C45.9579 140.168 45.4459 140.279 45.1308 140.476C44.8192 140.669 44.6635 140.972 44.6635 141.383C44.6635 141.706 44.7602 141.951 44.9535 142.119C45.1505 142.287 45.4244 142.372 45.7753 142.372ZM52.034 143H51.1424V134.643H52.034V143ZM55.6662 143H54.7746V137.113H55.6662V143ZM54.6994 135.518C54.6994 135.314 54.7495 135.165 54.8498 135.072C54.9501 134.976 55.0754 134.927 55.2258 134.927C55.369 134.927 55.4925 134.976 55.5964 135.072C55.7002 135.169 55.7521 135.318 55.7521 135.518C55.7521 135.719 55.7002 135.869 55.5964 135.969C55.4925 136.066 55.369 136.114 55.2258 136.114C55.0754 136.114 54.9501 136.066 54.8498 135.969C54.7495 135.869 54.6994 135.719 54.6994 135.518ZM60.6305 142.361C61.2249 142.361 61.6581 142.201 61.9303 141.883C62.2024 141.564 62.3474 141.027 62.3653 140.271V140.073C62.3653 139.249 62.2257 138.657 61.9464 138.295C61.6671 137.933 61.2249 137.752 60.6197 137.752C60.0969 137.752 59.6959 137.957 59.4166 138.365C59.1409 138.769 59.003 139.342 59.003 140.083C59.003 140.825 59.1391 141.39 59.4112 141.781C59.6869 142.167 60.0934 142.361 60.6305 142.361ZM60.4962 143.107C59.7371 143.107 59.1445 142.841 58.7184 142.307C58.2923 141.774 58.0792 141.029 58.0792 140.073C58.0792 139.11 58.294 138.358 58.7237 137.817C59.1534 137.276 59.7514 137.006 60.5177 137.006C61.3233 137.006 61.9428 137.31 62.3761 137.919H62.4244L62.5533 137.113H63.2569V145.643H62.3653V143.124C62.3653 142.765 62.385 142.461 62.4244 142.21H62.3546C61.9428 142.808 61.3233 143.107 60.4962 143.107ZM66.8408 137.113V140.932C66.8408 141.412 66.95 141.77 67.1685 142.006C67.3869 142.243 67.7288 142.361 68.1943 142.361C68.8102 142.361 69.2596 142.193 69.5425 141.856C69.8289 141.519 69.9722 140.97 69.9722 140.207V137.113H70.8638V143H70.1279L69.999 142.21H69.9507C69.7681 142.5 69.5138 142.722 69.188 142.876C68.8657 143.03 68.4969 143.107 68.0815 143.107C67.3654 143.107 66.8283 142.937 66.4702 142.597C66.1157 142.257 65.9385 141.713 65.9385 140.964V137.113H66.8408ZM77.2299 143L77.0526 142.162H77.0097C76.716 142.531 76.4224 142.782 76.1288 142.914C75.8388 143.043 75.4753 143.107 75.0385 143.107C74.4548 143.107 73.9965 142.957 73.6635 142.656C73.334 142.355 73.1693 141.928 73.1693 141.373C73.1693 140.184 74.12 139.561 76.0214 139.503L77.0204 139.471V139.106C77.0204 138.644 76.9201 138.304 76.7196 138.085C76.5227 137.863 76.2058 137.752 75.7689 137.752C75.2784 137.752 74.7234 137.903 74.1039 138.204L73.83 137.521C74.12 137.364 74.4369 137.24 74.7807 137.151C75.128 137.061 75.4753 137.017 75.8227 137.017C76.5245 137.017 77.0437 137.172 77.3803 137.484C77.7204 137.795 77.8905 138.295 77.8905 138.982V143H77.2299ZM75.2157 142.372C75.7707 142.372 76.2058 142.219 76.5209 141.915C76.8396 141.611 76.9989 141.185 76.9989 140.637V140.105L76.1073 140.143C75.3983 140.168 74.8863 140.279 74.5712 140.476C74.2597 140.669 74.1039 140.972 74.1039 141.383C74.1039 141.706 74.2006 141.951 74.3939 142.119C74.5909 142.287 74.8648 142.372 75.2157 142.372ZM88.0862 143V139.17C88.0862 138.701 87.986 138.35 87.7854 138.118C87.5849 137.881 87.2734 137.763 86.8509 137.763C86.2959 137.763 85.8859 137.923 85.6209 138.241C85.3559 138.56 85.2234 139.05 85.2234 139.713V143H84.3318V139.17C84.3318 138.701 84.2316 138.35 84.0311 138.118C83.8305 137.881 83.5172 137.763 83.0911 137.763C82.5325 137.763 82.1225 137.931 81.8611 138.268C81.6033 138.601 81.4744 139.149 81.4744 139.912V143H80.5828V137.113H81.3079L81.4529 137.919H81.4959C81.6642 137.632 81.9005 137.409 82.2049 137.248C82.5128 137.086 82.8566 137.006 83.2361 137.006C84.1564 137.006 84.7579 137.339 85.0408 138.005H85.0838C85.2592 137.697 85.5135 137.453 85.8465 137.274C86.1795 137.095 86.559 137.006 86.9852 137.006C87.6512 137.006 88.1489 137.178 88.4783 137.521C88.8113 137.862 88.9778 138.408 88.9778 139.16V143H88.0862ZM97.8644 143.107C96.9942 143.107 96.3067 142.842 95.8019 142.312C95.3006 141.783 95.0499 141.047 95.0499 140.105C95.0499 139.156 95.2827 138.402 95.7481 137.844C96.2172 137.285 96.8456 137.006 97.6334 137.006C98.371 137.006 98.9547 137.249 99.3844 137.736C99.8141 138.22 100.029 138.859 100.029 139.654V140.218H95.9737C95.9916 140.909 96.1653 141.433 96.4947 141.792C96.8277 142.15 97.295 142.329 97.8966 142.329C98.5304 142.329 99.157 142.196 99.7765 141.931V142.726C99.4614 142.862 99.1624 142.959 98.8795 143.016C98.6002 143.077 98.2618 143.107 97.8644 143.107ZM97.6227 137.752C97.15 137.752 96.7722 137.906 96.4894 138.214C96.2101 138.522 96.0453 138.948 95.9952 139.493H99.0729C99.0729 138.931 98.9475 138.501 98.6969 138.204C98.4462 137.903 98.0882 137.752 97.6227 137.752ZM105.09 137.006C105.351 137.006 105.586 137.027 105.793 137.07L105.67 137.897C105.426 137.844 105.212 137.817 105.025 137.817C104.549 137.817 104.141 138.01 103.801 138.397C103.464 138.784 103.296 139.265 103.296 139.842V143H102.404V137.113H103.14L103.242 138.204H103.285C103.504 137.82 103.767 137.525 104.075 137.317C104.383 137.11 104.721 137.006 105.09 137.006ZM111.365 143L111.187 142.162H111.144C110.851 142.531 110.557 142.782 110.264 142.914C109.974 143.043 109.61 143.107 109.173 143.107C108.59 143.107 108.131 142.957 107.798 142.656C107.469 142.355 107.304 141.928 107.304 141.373C107.304 140.184 108.255 139.561 110.156 139.503L111.155 139.471V139.106C111.155 138.644 111.055 138.304 110.854 138.085C110.657 137.863 110.341 137.752 109.904 137.752C109.413 137.752 108.858 137.903 108.239 138.204L107.965 137.521C108.255 137.364 108.572 137.24 108.915 137.151C109.263 137.061 109.61 137.017 109.957 137.017C110.659 137.017 111.178 137.172 111.515 137.484C111.855 137.795 112.025 138.295 112.025 138.982V143H111.365ZM109.35 142.372C109.905 142.372 110.341 142.219 110.656 141.915C110.974 141.611 111.134 141.185 111.134 140.637V140.105L110.242 140.143C109.533 140.168 109.021 140.279 108.706 140.476C108.394 140.669 108.239 140.972 108.239 141.383C108.239 141.706 108.335 141.951 108.529 142.119C108.726 142.287 109 142.372 109.35 142.372ZM116.619 142.372C116.776 142.372 116.929 142.361 117.075 142.339C117.222 142.314 117.339 142.289 117.425 142.264V142.946C117.328 142.993 117.185 143.03 116.995 143.059C116.809 143.091 116.64 143.107 116.49 143.107C115.351 143.107 114.782 142.508 114.782 141.308V137.806H113.939V137.376L114.782 137.006L115.158 135.749H115.674V137.113H117.382V137.806H115.674V141.271C115.674 141.625 115.758 141.897 115.926 142.087C116.094 142.277 116.325 142.372 116.619 142.372ZM119.327 142.431C119.327 142.191 119.381 142.01 119.488 141.888C119.599 141.763 119.757 141.7 119.961 141.7C120.169 141.7 120.33 141.763 120.445 141.888C120.563 142.01 120.622 142.191 120.622 142.431C120.622 142.663 120.563 142.842 120.445 142.968C120.326 143.093 120.165 143.156 119.961 143.156C119.779 143.156 119.626 143.1 119.505 142.989C119.386 142.875 119.327 142.688 119.327 142.431Z" fill="white"/>
<path fill-rule="evenodd" clip-rule="evenodd" d="M4.13178 47.1603L3.1365 49.0338V55.3274H-0.0834961V34.8365H3.1365V43.7647L7.35178 34.8365H10.5718L6.09305 43.9696L10.5718 55.3274H7.26396L4.13178 47.1603ZM15.1174 50.6145C15.1174 51.3561 15.2686 51.8781 15.5711 52.1806C15.8736 52.4831 16.2785 52.6343 16.7859 52.6343C17.2933 52.6343 17.6982 52.4831 18.0007 52.1806C18.3032 51.8781 18.4544 51.3561 18.4544 50.6145V39.5494C18.4544 38.8078 18.3032 38.2858 18.0007 37.9833C17.6982 37.6808 17.2933 37.5296 16.7859 37.5296C16.2785 37.5296 15.8736 37.6808 15.5711 37.9833C15.2686 38.2858 15.1174 38.8078 15.1174 39.5494V50.6145ZM11.8975 39.7543C11.8975 38.0955 12.317 36.8221 13.1562 35.9342C13.9954 35.0463 15.2053 34.6023 16.786 34.6023C18.3667 34.6023 19.5767 35.0463 20.4158 35.9342C21.255 36.8221 21.6746 38.0955 21.6746 39.7543V50.4096C21.6746 52.0684 21.255 53.3417 20.4158 54.2297C19.5767 55.1176 18.3667 55.5616 16.786 55.5616C15.2053 55.5616 13.9954 55.1176 13.1562 54.2297C12.317 53.3417 11.8975 52.0684 11.8975 50.4096V39.7543ZM26.9518 40.4861V55.3274H24.0538V34.8365H28.0935L31.4013 47.1018V34.8365H34.27V55.3274H30.9622L26.9518 40.4861ZM36.5034 39.7543C36.5034 38.0955 36.8985 36.8221 37.6889 35.9342C38.4793 35.0463 39.6648 34.6023 41.2455 34.6023C42.8263 34.6023 44.0118 35.0463 44.8022 35.9342C45.5925 36.8221 45.9877 38.0955 45.9877 39.7543V40.3983H42.9434V39.5494C42.9434 38.8078 42.8019 38.2858 42.5189 37.9833C42.2359 37.6808 41.8408 37.5296 41.3334 37.5296C40.826 37.5296 40.4308 37.6808 40.1478 37.9833C39.8648 38.2858 39.7234 38.8078 39.7234 39.5494C39.7234 40.2519 39.8795 40.8715 40.1917 41.4082C40.504 41.9449 40.8943 42.4523 41.3626 42.9304C41.831 43.4085 42.3335 43.8866 42.8702 44.3647C43.4068 44.8429 43.9094 45.3649 44.3777 45.9308C44.8461 46.4968 45.2364 47.1408 45.5486 47.8628C45.8609 48.5849 46.017 49.4338 46.017 50.4096C46.017 52.0684 45.6121 53.3417 44.8022 54.2297C43.9923 55.1176 42.797 55.5616 41.2163 55.5616C39.6355 55.5616 38.4402 55.1176 37.6304 54.2297C36.8205 53.3417 36.4155 52.0684 36.4155 50.4096V49.1508H39.4599V50.6145C39.4599 51.3561 39.6111 51.8732 39.9136 52.1659C40.2161 52.4587 40.621 52.605 41.1284 52.605C41.6358 52.605 42.0408 52.4587 42.3433 52.1659C42.6457 51.8732 42.797 51.3561 42.797 50.6145C42.797 49.9119 42.6409 49.2923 42.3286 48.7557C42.0164 48.219 41.6261 47.7116 41.1577 47.2335C40.6894 46.7554 40.1868 46.2772 39.6502 45.7991C39.1135 45.321 38.611 44.799 38.1426 44.233C37.6743 43.6671 37.284 43.0231 36.9717 42.301C36.6595 41.579 36.5034 40.7301 36.5034 39.7543ZM47.2546 34.8365H57.2073V37.7638H53.8409V55.3274H50.6209V37.7638H47.2546V34.8365ZM65.6756 55.3274C65.6366 55.1908 65.5976 55.0639 65.5585 54.9468C65.5195 54.8298 65.4854 54.6834 65.4561 54.5078C65.4268 54.3321 65.4073 54.1077 65.3975 53.8345C65.3878 53.5613 65.3829 53.2198 65.3829 52.8099V49.5899C65.3829 48.6337 65.217 47.9604 64.8853 47.5701C64.5535 47.1798 64.0169 46.9847 63.2753 46.9847H62.1629V55.3274H58.9429V34.8365H63.8022C65.4805 34.8365 66.6953 35.2268 67.4466 36.0074C68.198 36.788 68.5736 37.9687 68.5736 39.5494V41.1594C68.5736 43.267 67.8711 44.6526 66.466 45.3161C67.2856 45.6479 67.8467 46.1894 68.1492 46.9408C68.4517 47.6921 68.6029 48.6044 68.6029 49.6778V52.8392C68.6029 53.3466 68.6224 53.7906 68.6615 54.1711C68.7005 54.5517 68.7981 54.9371 68.9542 55.3274H65.6756ZM62.1628 37.7638V44.0574H63.4215C64.0265 44.0574 64.4998 43.9013 64.8413 43.589C65.1828 43.2768 65.3536 42.7108 65.3536 41.8912V39.8714C65.3536 39.1298 65.2218 38.5931 64.9584 38.2614C64.6949 37.9296 64.2802 37.7638 63.7143 37.7638H62.1628ZM74.1145 34.8365V50.6438C74.1145 51.3853 74.2657 51.9025 74.5682 52.1952C74.8707 52.4879 75.2757 52.6343 75.7831 52.6343C76.2904 52.6343 76.6954 52.4879 76.9979 52.1952C77.3004 51.9025 77.4516 51.3853 77.4516 50.6438V34.8365H80.496V50.4388C80.496 52.0976 80.091 53.371 79.2811 54.2589C78.4713 55.1469 77.276 55.5908 75.6952 55.5908C74.1145 55.5908 72.9192 55.1469 72.1093 54.2589C71.2994 53.371 70.8945 52.0976 70.8945 50.4388V34.8365H74.1145ZM91.8203 34.8365H101.773V37.7638H98.4067V55.3274H95.1867V37.7638H91.8203V34.8365Z" fill="white"/>
<path fill-rule="evenodd" clip-rule="evenodd" d="M82.0255 45.4851L90.3892 35.0305V55.9396L82.0255 45.4851Z" fill="#00A4E5"/>
</g>
<defs>
<clipPath id="clip0_0_79">
<rect width="250" height="148" fill="white"/>
</clipPath>
</defs>
</svg>
