<svg width="141" height="158" viewBox="0 0 141 158" fill="none" xmlns="http://www.w3.org/2000/svg">
<path d="M5.69873 42H0.537109V41.2319L2.60498 39.1533C3.23519 38.516 3.65055 38.0612 3.85107 37.7891C4.0516 37.5169 4.20199 37.252 4.30225 36.9941C4.40251 36.7363 4.45264 36.4588 4.45264 36.1616C4.45264 35.7427 4.32552 35.4115 4.07129 35.168C3.81706 34.9209 3.46436 34.7974 3.01318 34.7974C2.68734 34.7974 2.3776 34.8511 2.08398 34.9585C1.79395 35.0659 1.46989 35.2611 1.11182 35.5439L0.63916 34.937C1.36247 34.3354 2.15023 34.0347 3.00244 34.0347C3.74007 34.0347 4.31836 34.2244 4.7373 34.604C5.15625 34.98 5.36572 35.4867 5.36572 36.124C5.36572 36.6217 5.22607 37.1141 4.94678 37.6011C4.66748 38.0881 4.14469 38.7039 3.37842 39.4487L1.65967 41.1299V41.1729H5.69873V42ZM10.9814 42H10.1113V36.4033C10.1113 35.9378 10.1256 35.4974 10.1543 35.082C10.0791 35.1572 9.99492 35.236 9.90182 35.3184C9.80872 35.4007 9.38261 35.7498 8.6235 36.3657L8.15084 35.7534L10.2295 34.1475H10.9814V42ZM19.6855 35.9951C19.6855 36.4964 19.544 36.9064 19.2612 37.2251C18.9819 37.5438 18.5844 37.7568 18.0688 37.8643V37.9072C18.699 37.986 19.1663 38.1865 19.4706 38.5088C19.775 38.8311 19.9272 39.2536 19.9272 39.7764C19.9272 40.5247 19.6676 41.1012 19.1484 41.5059C18.6292 41.9069 17.8915 42.1074 16.9355 42.1074C16.5201 42.1074 16.1388 42.0752 15.7914 42.0107C15.4477 41.9499 15.1129 41.8407 14.787 41.6831V40.8345C15.1272 41.0028 15.4889 41.1317 15.872 41.2212C16.2587 41.3071 16.6239 41.3501 16.9677 41.3501C18.3248 41.3501 19.0033 40.8184 19.0033 39.7549C19.0033 38.8024 18.255 38.3262 16.7582 38.3262H15.9848V37.5581H16.769C17.3813 37.5581 17.8665 37.4238 18.2245 37.1553C18.5826 36.8831 18.7616 36.5072 18.7616 36.0273C18.7616 35.6442 18.6292 35.3434 18.3642 35.125C18.1028 34.9066 17.7465 34.7974 17.2953 34.7974C16.9516 34.7974 16.6275 34.8439 16.3232 34.937C16.0188 35.0301 15.6715 35.202 15.2812 35.4526L14.83 34.8511C15.1523 34.5968 15.5229 34.3981 15.9418 34.2549C16.3643 34.1081 16.8084 34.0347 17.2739 34.0347C18.0365 34.0347 18.6292 34.2101 19.0517 34.561C19.4742 34.9084 19.6855 35.3864 19.6855 35.9951ZM26.2064 34.1475H28.4247C29.4666 34.1475 30.2204 34.3032 30.6859 34.6147C31.1514 34.9263 31.3841 35.4186 31.3841 36.0918C31.3841 36.5573 31.2534 36.9422 30.992 37.2466C30.7342 37.5474 30.3565 37.7425 29.8587 37.832V37.8857C31.0511 38.0898 31.6473 38.7165 31.6473 39.7656C31.6473 40.4674 31.4092 41.0153 30.933 41.4092C30.4603 41.8031 29.7979 42 28.9457 42H26.2064V34.1475ZM27.1195 37.5098H28.6234C29.2679 37.5098 29.7316 37.4095 30.0145 37.209C30.2974 37.0049 30.4388 36.6629 30.4388 36.1831C30.4388 35.7427 30.2813 35.4258 29.9662 35.2324C29.6511 35.0355 29.1498 34.937 28.4623 34.937H27.1195V37.5098ZM27.1195 38.2832V41.2212H28.7577C29.3915 41.2212 29.8677 41.0994 30.1864 40.856C30.5086 40.6089 30.6698 40.224 30.6698 39.7012C30.6698 39.2142 30.5051 38.8561 30.1756 38.627C29.8498 38.3978 29.3521 38.2832 28.6825 38.2832H27.1195ZM37.6712 42L37.494 41.1621H37.451C37.1574 41.5309 36.8637 41.7816 36.5701 41.9141C36.2801 42.043 35.9166 42.1074 35.4798 42.1074C34.8961 42.1074 34.4378 41.957 34.1048 41.6562C33.7754 41.3555 33.6107 40.9276 33.6107 40.3726C33.6107 39.1838 34.5613 38.5607 36.4627 38.5034L37.4617 38.4712V38.106C37.4617 37.644 37.3615 37.3039 37.1609 37.0854C36.964 36.8634 36.6471 36.7524 36.2103 36.7524C35.7197 36.7524 35.1647 36.9028 34.5452 37.2036L34.2713 36.5215C34.5613 36.3639 34.8782 36.2404 35.222 36.1509C35.5693 36.0614 35.9166 36.0166 36.264 36.0166C36.9658 36.0166 37.485 36.1724 37.8216 36.4839C38.1618 36.7954 38.3318 37.2949 38.3318 37.9824V42H37.6712ZM35.657 41.3716C36.2121 41.3716 36.6471 41.2194 36.9622 40.915C37.2809 40.6107 37.4402 40.1846 37.4402 39.6367V39.105L36.5486 39.1426C35.8397 39.1676 35.3276 39.2786 35.0125 39.4756C34.701 39.6689 34.5452 39.9715 34.5452 40.3833C34.5452 40.7056 34.6419 40.9508 34.8353 41.1191C35.0322 41.2874 35.3061 41.3716 35.657 41.3716ZM41.9011 38.9868C42.0551 38.7684 42.2897 38.4819 42.6048 38.1274L44.5061 36.1133H45.5642L43.1795 38.6216L45.7307 42H44.6511L42.5725 39.2178L41.9011 39.7979V42H41.0203V33.6426H41.9011V38.0737C41.9011 38.2707 41.8868 38.575 41.8582 38.9868H41.9011ZM50.1325 42.1074C49.2624 42.1074 48.5749 41.8424 48.07 41.3125C47.5687 40.7826 47.3181 40.0467 47.3181 39.105C47.3181 38.1561 47.5508 37.4023 48.0163 36.8438C48.4854 36.2852 49.1138 36.0059 49.9016 36.0059C50.6392 36.0059 51.2229 36.2493 51.6526 36.7363C52.0823 37.2197 52.2971 37.8589 52.2971 38.6538V39.2178H48.2419C48.2598 39.9089 48.4335 40.4334 48.7629 40.7915C49.0959 41.1496 49.5632 41.3286 50.1648 41.3286C50.7986 41.3286 51.4252 41.1961 52.0447 40.9312V41.7261C51.7296 41.8621 51.4306 41.9588 51.1477 42.0161C50.8684 42.077 50.53 42.1074 50.1325 42.1074ZM49.8909 36.7524C49.4182 36.7524 49.0404 36.9064 48.7575 37.2144C48.4783 37.5223 48.3135 37.9484 48.2634 38.4927H51.341C51.341 37.9305 51.2157 37.5008 50.9651 37.2036C50.7144 36.9028 50.3563 36.7524 49.8909 36.7524ZM57.3542 36.0059C57.6156 36.0059 57.8501 36.0273 58.0578 36.0703L57.9343 36.8975C57.6908 36.8438 57.4759 36.8169 57.2897 36.8169C56.8135 36.8169 56.4053 37.0103 56.0651 37.397C55.7285 37.7837 55.5602 38.2653 55.5602 38.8418V42H54.6686V36.1133H55.4045L55.5065 37.2036H55.5495C55.7679 36.8205 56.0311 36.5251 56.3391 36.3174C56.647 36.1097 56.9854 36.0059 57.3542 36.0059ZM68.274 39.9106C68.274 40.6017 68.0234 41.1406 67.5221 41.5273C67.0208 41.9141 66.3404 42.1074 65.4811 42.1074C64.5501 42.1074 63.8339 41.9875 63.3326 41.7476V40.8667C63.6549 41.0028 64.0058 41.1102 64.3854 41.189C64.7649 41.2677 65.1409 41.3071 65.5133 41.3071C66.122 41.3071 66.5804 41.1925 66.8883 40.9634C67.1962 40.7306 67.3502 40.4084 67.3502 39.9966C67.3502 39.7244 67.2947 39.5024 67.1837 39.3306C67.0763 39.1551 66.8937 38.994 66.6359 38.8472C66.3816 38.7004 65.9931 38.5339 65.4703 38.3477C64.7399 38.0863 64.2171 37.7765 63.902 37.4185C63.5904 37.0604 63.4347 36.5931 63.4347 36.0166C63.4347 35.4115 63.6621 34.9299 64.1168 34.5718C64.5716 34.2137 65.1731 34.0347 65.9215 34.0347C66.7021 34.0347 67.42 34.1779 68.0753 34.4644L67.7906 35.2593C67.1425 34.9871 66.5123 34.8511 65.9 34.8511C65.4166 34.8511 65.0389 34.9549 64.7667 35.1626C64.4946 35.3703 64.3585 35.6585 64.3585 36.0273C64.3585 36.2995 64.4086 36.5233 64.5089 36.6987C64.6092 36.8706 64.7775 37.0299 65.0138 37.1768C65.2537 37.32 65.6189 37.4793 66.1095 37.6548C66.9331 37.9484 67.4988 38.2635 67.8068 38.6001C68.1183 38.9367 68.274 39.3735 68.274 39.9106ZM72.4932 41.3716C72.6508 41.3716 72.803 41.3608 72.9498 41.3394C73.0966 41.3143 73.213 41.2892 73.2989 41.2642V41.9463C73.2022 41.9928 73.059 42.0304 72.8692 42.0591C72.683 42.0913 72.5147 42.1074 72.3643 42.1074C71.2257 42.1074 70.6563 41.5076 70.6563 40.3081V36.8062H69.8131V36.3765L70.6563 36.0059L71.0323 34.749H71.5479V36.1133H73.2559V36.8062H71.5479V40.2705C71.5479 40.625 71.6321 40.8971 71.8004 41.0869C71.9687 41.2767 72.1996 41.3716 72.4932 41.3716ZM78.0122 36.0059C78.2736 36.0059 78.5082 36.0273 78.7159 36.0703L78.5923 36.8975C78.3488 36.8438 78.134 36.8169 77.9478 36.8169C77.4716 36.8169 77.0634 37.0103 76.7232 37.397C76.3866 37.7837 76.2183 38.2653 76.2183 38.8418V42H75.3267V36.1133H76.0625L76.1646 37.2036H76.2076C76.426 36.8205 76.6892 36.5251 76.9971 36.3174C77.3051 36.1097 77.6434 36.0059 78.0122 36.0059ZM83.1499 42.1074C82.2798 42.1074 81.5923 41.8424 81.0874 41.3125C80.5861 40.7826 80.3354 40.0467 80.3354 39.105C80.3354 38.1561 80.5682 37.4023 81.0337 36.8438C81.5028 36.2852 82.1312 36.0059 82.9189 36.0059C83.6566 36.0059 84.2402 36.2493 84.6699 36.7363C85.0996 37.2197 85.3145 37.8589 85.3145 38.6538V39.2178H81.2593C81.2772 39.9089 81.4508 40.4334 81.7803 40.7915C82.1133 41.1496 82.5806 41.3286 83.1821 41.3286C83.8159 41.3286 84.4425 41.1961 85.062 40.9312V41.7261C84.7469 41.8621 84.4479 41.9588 84.165 42.0161C83.8857 42.077 83.5474 42.1074 83.1499 42.1074ZM82.9082 36.7524C82.4355 36.7524 82.0578 36.9064 81.7749 37.2144C81.4956 37.5223 81.3309 37.9484 81.2808 38.4927H84.3584C84.3584 37.9305 84.2331 37.5008 83.9824 37.2036C83.7318 36.9028 83.3737 36.7524 82.9082 36.7524ZM90.1728 42.1074C89.3027 42.1074 88.6152 41.8424 88.1103 41.3125C87.609 40.7826 87.3584 40.0467 87.3584 39.105C87.3584 38.1561 87.5911 37.4023 88.0566 36.8438C88.5257 36.2852 89.1541 36.0059 89.9419 36.0059C90.6795 36.0059 91.2631 36.2493 91.6928 36.7363C92.1225 37.2197 92.3374 37.8589 92.3374 38.6538V39.2178H88.2822C88.3001 39.9089 88.4738 40.4334 88.8032 40.7915C89.1362 41.1496 89.6035 41.3286 90.205 41.3286C90.8388 41.3286 91.4655 41.1961 92.0849 40.9312V41.7261C91.7698 41.8621 91.4708 41.9588 91.188 42.0161C90.9087 42.077 90.5703 42.1074 90.1728 42.1074ZM89.9311 36.7524C89.4585 36.7524 89.0807 36.9064 88.7978 37.2144C88.5185 37.5223 88.3538 37.9484 88.3037 38.4927H91.3813C91.3813 37.9305 91.256 37.5008 91.0053 37.2036C90.7547 36.9028 90.3966 36.7524 89.9311 36.7524ZM96.6103 41.3716C96.7678 41.3716 96.92 41.3608 97.0668 41.3394C97.2136 41.3143 97.33 41.2892 97.4159 41.2642V41.9463C97.3193 41.9928 97.176 42.0304 96.9863 42.0591C96.8001 42.0913 96.6318 42.1074 96.4814 42.1074C95.3427 42.1074 94.7734 41.5076 94.7734 40.3081V36.8062H93.9301V36.3765L94.7734 36.0059L95.1493 34.749H95.665V36.1133H97.373V36.8062H95.665V40.2705C95.665 40.625 95.7491 40.8971 95.9174 41.0869C96.0857 41.2767 96.3167 41.3716 96.6103 41.3716ZM7.89551 54.063C7.89551 55.3198 7.57682 56.3081 6.93945 57.0278C6.30566 57.7476 5.42301 58.1074 4.2915 58.1074C3.13493 58.1074 2.24154 57.7547 1.61133 57.0493C0.984701 56.3403 0.671387 55.3413 0.671387 54.0522C0.671387 52.7739 0.986491 51.7839 1.6167 51.082C2.24691 50.3766 3.14209 50.0239 4.30225 50.0239C5.43018 50.0239 6.31104 50.382 6.94482 51.0981C7.57861 51.8143 7.89551 52.8026 7.89551 54.063ZM1.63818 54.063C1.63818 55.1265 1.86377 55.9339 2.31494 56.4854C2.76969 57.0332 3.42855 57.3071 4.2915 57.3071C5.16162 57.3071 5.81868 57.0332 6.2627 56.4854C6.70671 55.9375 6.92871 55.13 6.92871 54.063C6.92871 53.0067 6.70671 52.2064 6.2627 51.6621C5.82227 51.1143 5.16878 50.8403 4.30225 50.8403C3.43213 50.8403 2.76969 51.116 2.31494 51.6675C1.86377 52.2153 1.63818 53.0138 1.63818 54.063ZM13.0493 52.0059C13.3107 52.0059 13.5452 52.0273 13.7529 52.0703L13.6294 52.8975C13.3859 52.8438 13.171 52.8169 12.9848 52.8169C12.5086 52.8169 12.1004 53.0103 11.7602 53.397C11.4236 53.7837 11.2553 54.2653 11.2553 54.8418V58H10.3637V52.1133H11.0996L11.2016 53.2036H11.2446C11.463 52.8205 11.7262 52.5251 12.0341 52.3174C12.3421 52.1097 12.6805 52.0059 13.0493 52.0059ZM16.5917 58H15.7001V52.1133H16.5917V58ZM15.6249 50.5181C15.6249 50.314 15.6751 50.1654 15.7753 50.0723C15.8756 49.9756 16.0009 49.9272 16.1513 49.9272C16.2945 49.9272 16.4181 49.9756 16.5219 50.0723C16.6257 50.1689 16.6777 50.3175 16.6777 50.5181C16.6777 50.7186 16.6257 50.869 16.5219 50.9692C16.4181 51.0659 16.2945 51.1143 16.1513 51.1143C16.0009 51.1143 15.8756 51.0659 15.7753 50.9692C15.6751 50.869 15.6249 50.7186 15.6249 50.5181ZM21.8153 58.1074C20.9452 58.1074 20.2577 57.8424 19.7528 57.3125C19.2515 56.7826 19.0009 56.0467 19.0009 55.105C19.0009 54.1561 19.2336 53.4023 19.6991 52.8438C20.1682 52.2852 20.7966 52.0059 21.5844 52.0059C22.322 52.0059 22.9056 52.2493 23.3353 52.7363C23.765 53.2197 23.9799 53.8589 23.9799 54.6538V55.2178H19.9247C19.9426 55.9089 20.1163 56.4334 20.4457 56.7915C20.7787 57.1496 21.246 57.3286 21.8475 57.3286C22.4813 57.3286 23.108 57.1961 23.7274 56.9312V57.7261C23.4123 57.8621 23.1133 57.9588 22.8305 58.0161C22.5512 58.077 22.2128 58.1074 21.8153 58.1074ZM21.5736 52.7524C21.101 52.7524 20.7232 52.9064 20.4403 53.2144C20.161 53.5223 19.9963 53.9484 19.9462 54.4927H23.0238C23.0238 53.9305 22.8985 53.5008 22.6478 53.2036C22.3972 52.9028 22.0391 52.7524 21.5736 52.7524ZM27.243 58H26.3514V49.6426H27.243V58ZM37.18 50.8511C36.317 50.8511 35.6349 51.1393 35.1336 51.7158C34.6358 52.2887 34.387 53.0747 34.387 54.0737C34.387 55.1014 34.6269 55.8963 35.1067 56.4585C35.5901 57.0171 36.2776 57.2964 37.1692 57.2964C37.7171 57.2964 38.3419 57.1979 39.0437 57.001V57.8013C38.4994 58.0054 37.8281 58.1074 37.0296 58.1074C35.873 58.1074 34.9796 57.7565 34.3494 57.0547C33.7228 56.3529 33.4094 55.3556 33.4094 54.063C33.4094 53.2537 33.5598 52.5448 33.8606 51.936C34.165 51.3273 34.6018 50.8582 35.1712 50.5288C35.7441 50.1994 36.4173 50.0347 37.1907 50.0347C38.0143 50.0347 38.734 50.1851 39.3499 50.4858L38.9632 51.27C38.3688 50.9907 37.7744 50.8511 37.18 50.8511ZM42.3606 58H41.469V52.1133H42.3606V58ZM41.3938 50.5181C41.3938 50.314 41.4439 50.1654 41.5442 50.0723C41.6444 49.9756 41.7698 49.9272 41.9201 49.9272C42.0634 49.9272 42.1869 49.9756 42.2908 50.0723C42.3946 50.1689 42.4465 50.3175 42.4465 50.5181C42.4465 50.7186 42.3946 50.869 42.2908 50.9692C42.1869 51.0659 42.0634 51.1143 41.9201 51.1143C41.7698 51.1143 41.6444 51.0659 41.5442 50.9692C41.4439 50.869 41.3938 50.7186 41.3938 50.5181ZM46.9987 57.3716C47.1563 57.3716 47.3085 57.3608 47.4553 57.3394C47.6021 57.3143 47.7184 57.2892 47.8044 57.2642V57.9463C47.7077 57.9928 47.5645 58.0304 47.3747 58.0591C47.1885 58.0913 47.0202 58.1074 46.8698 58.1074C45.7311 58.1074 45.1618 57.5076 45.1618 56.3081V52.8062H44.3185V52.3765L45.1618 52.0059L45.5378 50.749H46.0534V52.1133H47.7614V52.8062H46.0534V56.2705C46.0534 56.625 46.1376 56.8971 46.3059 57.0869C46.4741 57.2767 46.7051 57.3716 46.9987 57.3716ZM48.8976 52.1133H49.8537L51.1427 55.4702C51.4256 56.2365 51.6011 56.7897 51.6691 57.1299H51.7121C51.7586 56.9473 51.8553 56.6357 52.0021 56.1953C52.1525 55.7513 52.6395 54.3906 53.463 52.1133H54.4191L51.8893 58.8164C51.6387 59.4788 51.345 59.9479 51.0085 60.2236C50.6754 60.5029 50.2655 60.6426 49.7785 60.6426C49.5063 60.6426 49.2378 60.6121 48.9728 60.5513V59.8369C49.1697 59.8799 49.39 59.9014 49.6335 59.9014C50.2458 59.9014 50.6826 59.5576 50.944 58.8701L51.2716 58.0322L48.8976 52.1133ZM65.731 58H64.6568L61.794 54.1919L60.9722 54.9224V58H60.0592V50.1475H60.9722V54.0415L64.5333 50.1475H65.6129L62.4547 53.5581L65.731 58ZM72.6089 55.0513C72.6089 56.0109 72.3672 56.7611 71.8838 57.3018C71.4004 57.8389 70.7326 58.1074 69.8804 58.1074C69.354 58.1074 68.8868 57.9839 68.4786 57.7368C68.0704 57.4897 67.7552 57.1353 67.5332 56.6733C67.3112 56.2114 67.2002 55.6707 67.2002 55.0513C67.2002 54.0916 67.4401 53.3451 67.92 52.8115C68.3998 52.2744 69.0658 52.0059 69.918 52.0059C70.7416 52.0059 71.3951 52.2798 71.8785 52.8276C72.3654 53.3755 72.6089 54.1167 72.6089 55.0513ZM68.1241 55.0513C68.1241 55.8032 68.2745 56.3761 68.5752 56.77C68.876 57.1639 69.3182 57.3608 69.9019 57.3608C70.4856 57.3608 70.9278 57.1657 71.2286 56.7754C71.5329 56.3815 71.6851 55.8068 71.6851 55.0513C71.6851 54.3029 71.5329 53.7354 71.2286 53.3486C70.9278 52.9583 70.482 52.7632 69.8912 52.7632C69.3075 52.7632 68.8671 52.9548 68.5699 53.3379C68.2727 53.721 68.1241 54.2922 68.1241 55.0513ZM75.8613 52.1133V55.9321C75.8613 56.4119 75.9705 56.77 76.189 57.0063C76.4074 57.2427 76.7493 57.3608 77.2148 57.3608C77.8307 57.3608 78.2801 57.1925 78.563 56.856C78.8494 56.5194 78.9927 55.9697 78.9927 55.207V52.1133H79.8843V58H79.1484L79.0195 57.2104H78.9712C78.7886 57.5005 78.5343 57.7225 78.2085 57.8765C77.8862 58.0304 77.5174 58.1074 77.1021 58.1074C76.3859 58.1074 75.8488 57.9373 75.4907 57.5972C75.1362 57.257 74.959 56.7127 74.959 55.9644V52.1133H75.8613ZM86.6547 58V54.1919C86.6547 53.7121 86.5455 53.354 86.3271 53.1177C86.1087 52.8813 85.7667 52.7632 85.3012 52.7632C84.6853 52.7632 84.2342 52.9297 83.9477 53.2627C83.6613 53.5957 83.518 54.1453 83.518 54.9116V58H82.6264V52.1133H83.3515L83.4965 52.9189H83.5395C83.7221 52.6289 83.9782 52.4051 84.3076 52.2476C84.637 52.0864 85.004 52.0059 85.4087 52.0059C86.1176 52.0059 86.6512 52.1777 87.0092 52.5215C87.3673 52.8617 87.5463 53.4077 87.5463 54.1597V58H86.6547ZM92.1308 57.3716C92.2883 57.3716 92.4405 57.3608 92.5873 57.3394C92.7341 57.3143 92.8505 57.2892 92.9364 57.2642V57.9463C92.8398 57.9928 92.6965 58.0304 92.5068 58.0591C92.3206 58.0913 92.1523 58.1074 92.0019 58.1074C90.8632 58.1074 90.2939 57.5076 90.2939 56.3081V52.8062H89.4506V52.3765L90.2939 52.0059L90.6698 50.749H91.1855V52.1133H92.8935V52.8062H91.1855V56.2705C91.1855 56.625 91.2696 56.8971 91.4379 57.0869C91.6062 57.2767 91.8372 57.3716 92.1308 57.3716ZM94.0297 52.1133H94.9857L96.2748 55.4702C96.5577 56.2365 96.7331 56.7897 96.8012 57.1299H96.8441C96.8907 56.9473 96.9874 56.6357 97.1342 56.1953C97.2846 55.7513 97.7715 54.3906 98.5951 52.1133H99.5512L97.0214 58.8164C96.7707 59.4788 96.4771 59.9479 96.1405 60.2236C95.8075 60.5029 95.3975 60.6426 94.9105 60.6426C94.6384 60.6426 94.3698 60.6121 94.1049 60.5513V59.8369C94.3018 59.8799 94.522 59.9014 94.7655 59.9014C95.3778 59.9014 95.8147 59.5576 96.0761 58.8701L96.4037 58.0322L94.0297 52.1133ZM1.53076 74L4.78564 66.9692H0.504883V66.1475H5.73096V66.8618L2.51904 74H1.53076ZM12.8828 70.063C12.8828 71.4201 12.6679 72.4334 12.2382 73.103C11.8121 73.7726 11.1587 74.1074 10.2778 74.1074C9.43274 74.1074 8.79 73.7655 8.34957 73.0815C7.90914 72.394 7.68893 71.3879 7.68893 70.063C7.68893 68.6951 7.90198 67.68 8.32809 67.0176C8.75419 66.3551 9.4041 66.0239 10.2778 66.0239C11.13 66.0239 11.7763 66.3695 12.2168 67.0605C12.6608 67.7516 12.8828 68.7524 12.8828 70.063ZM8.59127 70.063C8.59127 71.2052 8.72555 72.0378 8.9941 72.5605C9.26266 73.0798 9.69055 73.3394 10.2778 73.3394C10.8722 73.3394 11.3019 73.0762 11.5669 72.5498C11.8354 72.0199 11.9697 71.1909 11.9697 70.063C11.9697 68.9351 11.8354 68.1097 11.5669 67.5869C11.3019 67.0605 10.8722 66.7974 10.2778 66.7974C9.69055 66.7974 9.26266 67.057 8.9941 67.5762C8.72555 68.0918 8.59127 68.9207 8.59127 70.063ZM20.0239 70.063C20.0239 71.4201 19.809 72.4334 19.3793 73.103C18.9532 73.7726 18.2997 74.1074 17.4189 74.1074C16.5738 74.1074 15.9311 73.7655 15.4906 73.0815C15.0502 72.394 14.83 71.3879 14.83 70.063C14.83 68.6951 15.0431 67.68 15.4692 67.0176C15.8953 66.3551 16.5452 66.0239 17.4189 66.0239C18.2711 66.0239 18.9174 66.3695 19.3578 67.0605C19.8018 67.7516 20.0239 68.7524 20.0239 70.063ZM15.7323 70.063C15.7323 71.2052 15.8666 72.0378 16.1352 72.5605C16.4037 73.0798 16.8316 73.3394 17.4189 73.3394C18.0133 73.3394 18.443 73.0762 18.7079 72.5498C18.9765 72.0199 19.1108 71.1909 19.1108 70.063C19.1108 68.9351 18.9765 68.1097 18.7079 67.5869C18.443 67.0605 18.0133 66.7974 17.4189 66.7974C16.8316 66.7974 16.4037 67.057 16.1352 67.5762C15.8666 68.0918 15.7323 68.9207 15.7323 70.063ZM27.1649 70.063C27.1649 71.4201 26.9501 72.4334 26.5204 73.103C26.0943 73.7726 25.4408 74.1074 24.5599 74.1074C23.7149 74.1074 23.0722 73.7655 22.6317 73.0815C22.1913 72.394 21.9711 71.3879 21.9711 70.063C21.9711 68.6951 22.1841 67.68 22.6102 67.0176C23.0363 66.3551 23.6862 66.0239 24.5599 66.0239C25.4122 66.0239 26.0585 66.3695 26.4989 67.0605C26.9429 67.7516 27.1649 68.7524 27.1649 70.063ZM22.8734 70.063C22.8734 71.2052 23.0077 72.0378 23.2763 72.5605C23.5448 73.0798 23.9727 73.3394 24.5599 73.3394C25.1543 73.3394 25.584 73.0762 25.849 72.5498C26.1176 72.0199 26.2518 71.1909 26.2518 70.063C26.2518 68.9351 26.1176 68.1097 25.849 67.5869C25.584 67.0605 25.1543 66.7974 24.5599 66.7974C23.9727 66.7974 23.5448 67.057 23.2763 67.5762C23.0077 68.0918 22.8734 68.9207 22.8734 70.063ZM39.0193 74H37.9451L35.0823 70.1919L34.2606 70.9224V74H33.3475V66.1475H34.2606V70.0415L37.8216 66.1475H38.9012L35.743 69.5581L39.0193 74ZM47.0842 74H46.0423L41.7508 67.4097H41.7078C41.7651 68.1831 41.7937 68.8921 41.7937 69.5366V74H40.9505V66.1475H41.9817L46.2625 72.7109H46.3054C46.2983 72.6143 46.2822 72.3045 46.2571 71.7817C46.232 71.2554 46.2231 70.8794 46.2302 70.6538V66.1475H47.0842V74ZM56.9431 74H56.0408L54.4563 68.7417C54.3811 68.509 54.2969 68.2153 54.2038 67.8608C54.1107 67.5063 54.0624 67.2933 54.0588 67.2217C53.98 67.6943 53.8547 68.2118 53.6828 68.7739L52.1467 74H51.2444L49.155 66.1475H50.1218L51.3625 70.9976C51.5344 71.6779 51.6597 72.2938 51.7385 72.8452C51.8352 72.1899 51.9784 71.549 52.1682 70.9224L53.5754 66.1475H54.5422L56.0193 70.9653C56.1911 71.5203 56.3362 72.147 56.4543 72.8452C56.5224 72.3368 56.6513 71.7173 56.841 70.9868L58.0764 66.1475H59.0432L56.9431 74ZM61.9196 72.7217L62.0002 72.8452C61.9071 73.2033 61.7728 73.6187 61.5974 74.0913C61.4219 74.5675 61.2393 75.0098 61.0495 75.418H60.3781C60.4748 75.0456 60.5804 74.5854 60.695 74.0376C60.8132 73.4897 60.8955 73.0511 60.9421 72.7217H61.9196ZM6.75146 90H5.67725L2.81445 86.1919L1.99268 86.9224V90H1.07959V82.1475H1.99268V86.0415L5.55371 82.1475H6.6333L3.4751 85.5581L6.75146 90ZM13.6294 87.0513C13.6294 88.0109 13.3877 88.7611 12.9043 89.3018C12.4209 89.8389 11.7531 90.1074 10.9008 90.1074C10.3745 90.1074 9.90719 89.9839 9.49899 89.7368C9.09078 89.4897 8.77568 89.1353 8.55367 88.6733C8.33167 88.2114 8.22067 87.6707 8.22067 87.0513C8.22067 86.0916 8.46057 85.3451 8.94039 84.8115C9.42021 84.2744 10.0862 84.0059 10.9384 84.0059C11.762 84.0059 12.4155 84.2798 12.8989 84.8276C13.3859 85.3755 13.6294 86.1167 13.6294 87.0513ZM9.14449 87.0513C9.14449 87.8032 9.29488 88.3761 9.59567 88.77C9.89645 89.1639 10.3387 89.3608 10.9223 89.3608C11.506 89.3608 11.9482 89.1657 12.249 88.7754C12.5533 88.3815 12.7055 87.8068 12.7055 87.0513C12.7055 86.3029 12.5533 85.7354 12.249 85.3486C11.9482 84.9583 11.5024 84.7632 10.9116 84.7632C10.3279 84.7632 9.88749 84.9548 9.59029 85.3379C9.29309 85.721 9.14449 86.2922 9.14449 87.0513ZM16.8818 84.1133V87.9321C16.8818 88.4119 16.991 88.77 17.2094 89.0063C17.4278 89.2427 17.7698 89.3608 18.2353 89.3608C18.8512 89.3608 19.3005 89.1925 19.5834 88.856C19.8699 88.5194 20.0131 87.9697 20.0131 87.207V84.1133H20.9047V90H20.1689L20.04 89.2104H19.9916C19.809 89.5005 19.5548 89.7225 19.2289 89.8765C18.9067 90.0304 18.5378 90.1074 18.1225 90.1074C17.4063 90.1074 16.8692 89.9373 16.5112 89.5972C16.1567 89.257 15.9794 88.7127 15.9794 87.9644V84.1133H16.8818ZM27.6752 90V86.1919C27.6752 85.7121 27.566 85.354 27.3475 85.1177C27.1291 84.8813 26.7872 84.7632 26.3217 84.7632C25.7058 84.7632 25.2546 84.9297 24.9681 85.2627C24.6817 85.5957 24.5385 86.1453 24.5385 86.9116V90H23.6469V84.1133H24.372L24.517 84.9189H24.5599C24.7426 84.6289 24.9986 84.4051 25.328 84.2476C25.6574 84.0864 26.0245 84.0059 26.4291 84.0059C27.1381 84.0059 27.6716 84.1777 28.0297 84.5215C28.3877 84.8617 28.5668 85.4077 28.5668 86.1597V90H27.6752ZM33.1512 89.3716C33.3088 89.3716 33.4609 89.3608 33.6078 89.3394C33.7546 89.3143 33.8709 89.2892 33.9569 89.2642V89.9463C33.8602 89.9928 33.717 90.0304 33.5272 90.0591C33.341 90.0913 33.1727 90.1074 33.0223 90.1074C31.8836 90.1074 31.3143 89.5076 31.3143 88.3081V84.8062H30.471V84.3765L31.3143 84.0059L31.6903 82.749H32.2059V84.1133H33.9139V84.8062H32.2059V88.2705C32.2059 88.625 32.2901 88.8971 32.4583 89.0869C32.6266 89.2767 32.8576 89.3716 33.1512 89.3716ZM38.6702 84.0059C38.9316 84.0059 39.1662 84.0273 39.3738 84.0703L39.2503 84.8975C39.0068 84.8438 38.792 84.8169 38.6058 84.8169C38.1295 84.8169 37.7213 85.0103 37.3812 85.397C37.0446 85.7837 36.8763 86.2653 36.8763 86.8418V90H35.9847V84.1133H36.7205L36.8226 85.2036H36.8655C37.084 84.8205 37.3471 84.5251 37.6551 84.3174C37.963 84.1097 38.3014 84.0059 38.6702 84.0059ZM40.3865 84.1133H41.3425L42.6316 87.4702C42.9145 88.2365 43.0899 88.7897 43.158 89.1299H43.2009C43.2475 88.9473 43.3442 88.6357 43.491 88.1953C43.6414 87.7513 44.1284 86.3906 44.9519 84.1133H45.908L43.3782 90.8164C43.1275 91.4788 42.8339 91.9479 42.4973 92.2236C42.1643 92.5029 41.7543 92.6426 41.2674 92.6426C40.9952 92.6426 40.7267 92.6121 40.4617 92.5513V91.8369C40.6586 91.8799 40.8788 91.9014 41.1223 91.9014C41.7346 91.9014 42.1715 91.5576 42.4329 90.8701L42.7605 90.0322L40.3865 84.1133ZM57.6818 90H56.6398L52.3483 83.4097H52.3054C52.3627 84.1831 52.3913 84.8921 52.3913 85.5366V90H51.548V82.1475H52.5793L56.8601 88.7109H56.903C56.8959 88.6143 56.8797 88.3045 56.8547 87.7817C56.8296 87.2554 56.8207 86.8794 56.8278 86.6538V82.1475H57.6818V90ZM64.173 90L63.9958 89.1621H63.9528C63.6592 89.5309 63.3655 89.7816 63.0719 89.9141C62.7819 90.043 62.4184 90.1074 61.9816 90.1074C61.3979 90.1074 60.9396 89.957 60.6066 89.6562C60.2772 89.3555 60.1125 88.9276 60.1125 88.3726C60.1125 87.1838 61.0631 86.5607 62.9645 86.5034L63.9635 86.4712V86.106C63.9635 85.644 63.8633 85.3039 63.6628 85.0854C63.4658 84.8634 63.1489 84.7524 62.7121 84.7524C62.2215 84.7524 61.6665 84.9028 61.047 85.2036L60.7731 84.5215C61.0631 84.3639 61.38 84.2404 61.7238 84.1509C62.0711 84.0614 62.4184 84.0166 62.7658 84.0166C63.4676 84.0166 63.9868 84.1724 64.3234 84.4839C64.6636 84.7954 64.8336 85.2949 64.8336 85.9824V90H64.173ZM62.1588 89.3716C62.7139 89.3716 63.1489 89.2194 63.464 88.915C63.7827 88.6107 63.942 88.1846 63.942 87.6367V87.105L63.0504 87.1426C62.3415 87.1676 61.8294 87.2786 61.5143 87.4756C61.2028 87.6689 61.047 87.9715 61.047 88.3833C61.047 88.7056 61.1437 88.9508 61.3371 89.1191C61.534 89.2874 61.8079 89.3716 62.1588 89.3716ZM75.0255 90V86.1704C75.0255 85.7013 74.9252 85.3504 74.7247 85.1177C74.5242 84.8813 74.2127 84.7632 73.7902 84.7632C73.2351 84.7632 72.8251 84.9225 72.5602 85.2412C72.2952 85.5599 72.1627 86.0505 72.1627 86.7129V90H71.2711V86.1704C71.2711 85.7013 71.1709 85.3504 70.9703 85.1177C70.7698 84.8813 70.4565 84.7632 70.0304 84.7632C69.4718 84.7632 69.0618 84.9315 68.8004 85.2681C68.5426 85.6011 68.4137 86.1489 68.4137 86.9116V90H67.5221V84.1133H68.2472L68.3922 84.9189H68.4352C68.6035 84.6325 68.8398 84.4087 69.1442 84.2476C69.4521 84.0864 69.7959 84.0059 70.1754 84.0059C71.0957 84.0059 71.6972 84.3389 71.9801 85.0049H72.0231C72.1985 84.6969 72.4528 84.4535 72.7858 84.2744C73.1188 84.0954 73.4983 84.0059 73.9244 84.0059C74.5904 84.0059 75.0882 84.1777 75.4176 84.5215C75.7506 84.8617 75.9171 85.4077 75.9171 86.1597V90H75.0255ZM81.0924 90.1074C80.2222 90.1074 79.5347 89.8424 79.0299 89.3125C78.5286 88.7826 78.2779 88.0467 78.2779 87.105C78.2779 86.1561 78.5107 85.4023 78.9762 84.8438C79.4452 84.2852 80.0736 84.0059 80.8614 84.0059C81.599 84.0059 82.1827 84.2493 82.6124 84.7363C83.0421 85.2197 83.2569 85.8589 83.2569 86.6538V87.2178H79.2017C79.2196 87.9089 79.3933 88.4334 79.7227 88.7915C80.0557 89.1496 80.523 89.3286 81.1246 89.3286C81.7584 89.3286 82.385 89.1961 83.0045 88.9312V89.7261C82.6894 89.8621 82.3904 89.9588 82.1075 90.0161C81.8282 90.077 81.4898 90.1074 81.0924 90.1074ZM80.8507 84.7524C80.378 84.7524 80.0002 84.9064 79.7174 85.2144C79.4381 85.5223 79.2734 85.9484 79.2232 86.4927H82.3009C82.3009 85.9305 82.1755 85.5008 81.9249 85.2036C81.6742 84.9028 81.3162 84.7524 80.8507 84.7524ZM3.50732 117.751H5.72021V118.493H3.50732V120.781H2.76074V118.493H0.558594V117.751H2.76074V115.453H3.50732V117.751ZM12.8398 122H7.67818V121.232L9.74606 119.153C10.3763 118.516 10.7916 118.061 10.9921 117.789C11.1927 117.517 11.3431 117.252 11.4433 116.994C11.5436 116.736 11.5937 116.459 11.5937 116.162C11.5937 115.743 11.4666 115.411 11.2124 115.168C10.9581 114.921 10.6054 114.797 10.1543 114.797C9.82841 114.797 9.51868 114.851 9.22506 114.958C8.93502 115.066 8.61096 115.261 8.25289 115.544L7.78024 114.937C8.50354 114.335 9.2913 114.035 10.1435 114.035C10.8811 114.035 11.4594 114.224 11.8784 114.604C12.2973 114.98 12.5068 115.487 12.5068 116.124C12.5068 116.622 12.3671 117.114 12.0879 117.601C11.8086 118.088 11.2858 118.704 10.5195 119.449L8.80074 121.13V121.173H12.8398V122ZM19.6855 115.995C19.6855 116.496 19.544 116.906 19.2612 117.225C18.9819 117.544 18.5844 117.757 18.0688 117.864V117.907C18.699 117.986 19.1663 118.187 19.4706 118.509C19.775 118.831 19.9272 119.254 19.9272 119.776C19.9272 120.525 19.6676 121.101 19.1484 121.506C18.6292 121.907 17.8915 122.107 16.9355 122.107C16.5201 122.107 16.1388 122.075 15.7914 122.011C15.4477 121.95 15.1129 121.841 14.787 121.683V120.834C15.1272 121.003 15.4889 121.132 15.872 121.221C16.2587 121.307 16.6239 121.35 16.9677 121.35C18.3248 121.35 19.0033 120.818 19.0033 119.755C19.0033 118.802 18.255 118.326 16.7582 118.326H15.9848V117.558H16.769C17.3813 117.558 17.8665 117.424 18.2245 117.155C18.5826 116.883 18.7616 116.507 18.7616 116.027C18.7616 115.644 18.6292 115.343 18.3642 115.125C18.1028 114.907 17.7465 114.797 17.2953 114.797C16.9516 114.797 16.6275 114.844 16.3232 114.937C16.0188 115.03 15.6715 115.202 15.2812 115.453L14.83 114.851C15.1523 114.597 15.5229 114.398 15.9418 114.255C16.3643 114.108 16.8084 114.035 17.2739 114.035C18.0365 114.035 18.6292 114.21 19.0517 114.561C19.4742 114.908 19.6855 115.386 19.6855 115.995ZM30.8255 117.499C30.8255 120.571 29.6367 122.107 27.2591 122.107C26.8438 122.107 26.5143 122.072 26.2708 122V121.232C26.5573 121.325 26.8832 121.372 27.2484 121.372C28.1078 121.372 28.7559 121.107 29.1927 120.577C29.6332 120.043 29.8731 119.227 29.9124 118.127H29.848C29.6511 118.425 29.3897 118.652 29.0638 118.81C28.738 118.964 28.3709 119.041 27.9627 119.041C27.2681 119.041 26.7166 118.833 26.3084 118.417C25.9002 118.002 25.6961 117.422 25.6961 116.677C25.6961 115.861 25.9235 115.216 26.3783 114.744C26.8366 114.271 27.4382 114.035 28.183 114.035C28.7165 114.035 29.182 114.173 29.5794 114.448C29.9805 114.72 30.2884 115.12 30.5033 115.646C30.7181 116.169 30.8255 116.786 30.8255 117.499ZM28.183 114.797C27.6709 114.797 27.2752 114.962 26.9959 115.292C26.7166 115.621 26.577 116.079 26.577 116.667C26.577 117.182 26.7059 117.589 26.9637 117.886C27.2215 118.179 27.6136 118.326 28.14 118.326C28.4658 118.326 28.7648 118.26 29.037 118.127C29.3127 117.995 29.5293 117.814 29.6869 117.585C29.8444 117.356 29.9232 117.116 29.9232 116.865C29.9232 116.489 29.8498 116.142 29.703 115.823C29.5562 115.505 29.3503 115.254 29.0853 115.071C28.8239 114.889 28.5231 114.797 28.183 114.797ZM37.9666 117.499C37.9666 120.571 36.7778 122.107 34.4002 122.107C33.9848 122.107 33.6554 122.072 33.4119 122V121.232C33.6984 121.325 34.0242 121.372 34.3895 121.372C35.2488 121.372 35.8969 121.107 36.3338 120.577C36.7742 120.043 37.0141 119.227 37.0535 118.127H36.9891C36.7921 118.425 36.5307 118.652 36.2049 118.81C35.879 118.964 35.512 119.041 35.1038 119.041C34.4092 119.041 33.8577 118.833 33.4495 118.417C33.0413 118.002 32.8372 117.422 32.8372 116.677C32.8372 115.861 33.0646 115.216 33.5193 114.744C33.9777 114.271 34.5792 114.035 35.324 114.035C35.8576 114.035 36.3231 114.173 36.7205 114.448C37.1216 114.72 37.4295 115.12 37.6443 115.646C37.8592 116.169 37.9666 116.786 37.9666 117.499ZM35.324 114.797C34.812 114.797 34.4163 114.962 34.137 115.292C33.8577 115.621 33.7181 116.079 33.7181 116.667C33.7181 117.182 33.847 117.589 34.1048 117.886C34.3626 118.179 34.7547 118.326 35.2811 118.326C35.6069 118.326 35.9059 118.26 36.178 118.127C36.4538 117.995 36.6704 117.814 36.8279 117.585C36.9855 117.356 37.0643 117.116 37.0643 116.865C37.0643 116.489 36.9909 116.142 36.8441 115.823C36.6972 115.505 36.4913 115.254 36.2264 115.071C35.965 114.889 35.6642 114.797 35.324 114.797ZM45.4783 120.195H44.3128V122H43.4588V120.195H39.6399V119.417L43.3675 114.104H44.3128V119.384H45.4783V120.195ZM43.4588 119.384V116.774C43.4588 116.262 43.4767 115.684 43.5125 115.039H43.4695C43.2976 115.383 43.1365 115.667 42.9861 115.893L40.5315 119.384H43.4588ZM55.9523 122H50.7907V121.232L52.8586 119.153C53.4888 118.516 53.9042 118.061 54.1047 117.789C54.3052 117.517 54.4556 117.252 54.5559 116.994C54.6561 116.736 54.7062 116.459 54.7062 116.162C54.7062 115.743 54.5791 115.411 54.3249 115.168C54.0707 114.921 53.718 114.797 53.2668 114.797C52.9409 114.797 52.6312 114.851 52.3376 114.958C52.0476 115.066 51.7235 115.261 51.3654 115.544L50.8928 114.937C51.6161 114.335 52.4038 114.035 53.256 114.035C53.9937 114.035 54.572 114.224 54.9909 114.604C55.4099 114.98 55.6193 115.487 55.6193 116.124C55.6193 116.622 55.4797 117.114 55.2004 117.601C54.9211 118.088 54.3983 118.704 53.632 119.449L51.9133 121.13V121.173H55.9523V122ZM62.798 115.995C62.798 116.496 62.6566 116.906 62.3737 117.225C62.0944 117.544 61.6969 117.757 61.1813 117.864V117.907C61.8115 117.986 62.2788 118.187 62.5832 118.509C62.8875 118.831 63.0397 119.254 63.0397 119.776C63.0397 120.525 62.7801 121.101 62.2609 121.506C61.7417 121.907 61.0041 122.107 60.048 122.107C59.6326 122.107 59.2513 122.075 58.904 122.011C58.5602 121.95 58.2254 121.841 57.8996 121.683V120.834C58.2397 121.003 58.6014 121.132 58.9845 121.221C59.3712 121.307 59.7365 121.35 60.0802 121.35C61.4373 121.35 62.1159 120.818 62.1159 119.755C62.1159 118.802 61.3675 118.326 59.8708 118.326H59.0973V117.558H59.8815C60.4938 117.558 60.979 117.424 61.3371 117.155C61.6951 116.883 61.8742 116.507 61.8742 116.027C61.8742 115.644 61.7417 115.343 61.4767 115.125C61.2153 114.907 60.859 114.797 60.4079 114.797C60.0641 114.797 59.7401 114.844 59.4357 114.937C59.1313 115.03 58.784 115.202 58.3937 115.453L57.9425 114.851C58.2648 114.597 58.6354 114.398 59.0544 114.255C59.4769 114.108 59.9209 114.035 60.3864 114.035C61.1491 114.035 61.7417 114.21 62.1642 114.561C62.5867 114.908 62.798 115.386 62.798 115.995ZM69.9391 115.995C69.9391 116.496 69.7976 116.906 69.5148 117.225C69.2355 117.544 68.838 117.757 68.3224 117.864V117.907C68.9526 117.986 69.4199 118.187 69.7242 118.509C70.0286 118.831 70.1808 119.254 70.1808 119.776C70.1808 120.525 69.9212 121.101 69.402 121.506C68.8828 121.907 68.1451 122.107 67.1891 122.107C66.7737 122.107 66.3924 122.075 66.045 122.011C65.7013 121.95 65.3665 121.841 65.0406 121.683V120.834C65.3808 121.003 65.7425 121.132 66.1256 121.221C66.5123 121.307 66.8776 121.35 67.2213 121.35C68.5784 121.35 69.257 120.818 69.257 119.755C69.257 118.802 68.5086 118.326 67.0118 118.326H66.2384V117.558H67.0226C67.6349 117.558 68.1201 117.424 68.4781 117.155C68.8362 116.883 69.0153 116.507 69.0153 116.027C69.0153 115.644 68.8828 115.343 68.6178 115.125C68.3564 114.907 68.0001 114.797 67.5489 114.797C67.2052 114.797 66.8811 114.844 66.5768 114.937C66.2724 115.03 65.9251 115.202 65.5348 115.453L65.0836 114.851C65.4059 114.597 65.7765 114.398 66.1954 114.255C66.618 114.108 67.062 114.035 67.5275 114.035C68.2902 114.035 68.8828 114.21 69.3053 114.561C69.7278 114.908 69.9391 115.386 69.9391 115.995ZM81.4497 120.195H80.2842V122H79.4302V120.195H75.6114V119.417L79.3389 114.104H80.2842V119.384H81.4497V120.195ZM79.4302 119.384V116.774C79.4302 116.262 79.4481 115.684 79.4839 115.039H79.441C79.2691 115.383 79.1079 115.667 78.9576 115.893L76.503 119.384H79.4302ZM88.2632 118.063C88.2632 119.42 88.0483 120.433 87.6187 121.103C87.1925 121.773 86.5391 122.107 85.6582 122.107C84.8132 122.107 84.1704 121.765 83.73 121.082C83.2896 120.394 83.0693 119.388 83.0693 118.063C83.0693 116.695 83.2824 115.68 83.7085 115.018C84.1346 114.355 84.7845 114.024 85.6582 114.024C86.5104 114.024 87.1567 114.369 87.5972 115.061C88.0412 115.752 88.2632 116.752 88.2632 118.063ZM83.9717 118.063C83.9717 119.205 84.106 120.038 84.3745 120.561C84.6431 121.08 85.071 121.339 85.6582 121.339C86.2526 121.339 86.6823 121.076 86.9473 120.55C87.2158 120.02 87.3501 119.191 87.3501 118.063C87.3501 116.935 87.2158 116.11 86.9473 115.587C86.6823 115.061 86.2526 114.797 85.6582 114.797C85.071 114.797 84.6431 115.057 84.3745 115.576C84.106 116.092 83.9717 116.921 83.9717 118.063ZM95.3613 122H90.1997V121.232L92.2675 119.153C92.8977 118.516 93.3131 118.061 93.5136 117.789C93.7142 117.517 93.8645 117.252 93.9648 116.994C94.0651 116.736 94.1152 116.459 94.1152 116.162C94.1152 115.743 93.9881 115.411 93.7338 115.168C93.4796 114.921 93.1269 114.797 92.6757 114.797C92.3499 114.797 92.0402 114.851 91.7465 114.958C91.4565 115.066 91.1324 115.261 90.7744 115.544L90.3017 114.937C91.025 114.335 91.8128 114.035 92.665 114.035C93.4026 114.035 93.9809 114.224 94.3999 114.604C94.8188 114.98 95.0283 115.487 95.0283 116.124C95.0283 116.622 94.8886 117.114 94.6093 117.601C94.33 118.088 93.8073 118.704 93.041 119.449L91.3222 121.13V121.173H95.3613V122ZM102.502 122H97.3407V121.232L99.4086 119.153C100.039 118.516 100.454 118.061 100.655 117.789C100.855 117.517 101.006 117.252 101.106 116.994C101.206 116.736 101.256 116.459 101.256 116.162C101.256 115.743 101.129 115.411 100.875 115.168C100.621 114.921 100.268 114.797 99.8168 114.797C99.491 114.797 99.1812 114.851 98.8876 114.958C98.5976 115.066 98.2735 115.261 97.9155 115.544L97.4428 114.937C98.1661 114.335 98.9539 114.035 99.8061 114.035C100.544 114.035 101.122 114.224 101.541 114.604C101.96 114.98 102.169 115.487 102.169 116.124C102.169 116.622 102.03 117.114 101.75 117.601C101.471 118.088 100.948 118.704 100.182 119.449L98.4633 121.13V121.173H102.502V122ZM1.83691 154H0.945312V148.113H1.83691V154ZM0.870117 146.518C0.870117 146.314 0.920247 146.165 1.02051 146.072C1.12077 145.976 1.24609 145.927 1.39648 145.927C1.53971 145.927 1.66325 145.976 1.76709 146.072C1.87093 146.169 1.92285 146.318 1.92285 146.518C1.92285 146.719 1.87093 146.869 1.76709 146.969C1.66325 147.066 1.53971 147.114 1.39648 147.114C1.24609 147.114 1.12077 147.066 1.02051 146.969C0.920247 146.869 0.870117 146.719 0.870117 146.518ZM8.60201 154V150.192C8.60201 149.712 8.4928 149.354 8.27438 149.118C8.05595 148.881 7.71399 148.763 7.2485 148.763C6.63261 148.763 6.18144 148.93 5.89498 149.263C5.60852 149.596 5.46529 150.145 5.46529 150.912V154H4.57369V148.113H5.29879L5.44381 148.919H5.48678C5.6694 148.629 5.92542 148.405 6.25485 148.248C6.58427 148.086 6.9513 148.006 7.35592 148.006C8.0649 148.006 8.59843 148.178 8.95651 148.521C9.31458 148.862 9.49361 149.408 9.49361 150.16V154H8.60201ZM14.83 148.806H13.3315V154H12.4399V148.806H11.3871V148.403L12.4399 148.081V147.753C12.4399 146.307 13.0719 145.583 14.3359 145.583C14.6474 145.583 15.0126 145.646 15.4316 145.771L15.2006 146.486C14.8569 146.375 14.5632 146.319 14.3197 146.319C13.9832 146.319 13.7343 146.432 13.5732 146.658C13.412 146.88 13.3315 147.238 13.3315 147.732V148.113H14.83V148.806ZM21.8314 151.051C21.8314 152.011 21.5897 152.761 21.1063 153.302C20.6229 153.839 19.9551 154.107 19.1029 154.107C18.5765 154.107 18.1093 153.984 17.7011 153.737C17.2929 153.49 16.9778 153.135 16.7557 152.673C16.5337 152.211 16.4227 151.671 16.4227 151.051C16.4227 150.092 16.6626 149.345 17.1425 148.812C17.6223 148.274 18.2883 148.006 19.1405 148.006C19.9641 148.006 20.6176 148.28 21.101 148.828C21.5879 149.375 21.8314 150.117 21.8314 151.051ZM17.3466 151.051C17.3466 151.803 17.497 152.376 17.7977 152.77C18.0985 153.164 18.5407 153.361 19.1244 153.361C19.7081 153.361 20.1503 153.166 20.4511 152.775C20.7554 152.382 20.9076 151.807 20.9076 151.051C20.9076 150.303 20.7554 149.735 20.4511 149.349C20.1503 148.958 19.7045 148.763 19.1137 148.763C18.53 148.763 18.0896 148.955 17.7924 149.338C17.4952 149.721 17.3466 150.292 17.3466 151.051ZM32.5389 150.084C32.5389 150.593 32.4601 151.058 32.3026 151.481C32.145 151.903 31.923 152.231 31.6366 152.464C31.3501 152.697 31.0207 152.813 30.6483 152.813C30.3403 152.813 30.0807 152.72 29.8695 152.534C29.6582 152.347 29.5329 152.109 29.4935 151.819H29.4505C29.3073 152.131 29.1014 152.374 28.8329 152.55C28.5679 152.725 28.2528 152.813 27.8875 152.813C27.3504 152.813 26.9297 152.63 26.6253 152.265C26.3246 151.896 26.1742 151.397 26.1742 150.767C26.1742 150.036 26.3854 149.444 26.808 148.989C27.2305 148.53 27.7855 148.301 28.473 148.301C28.7165 148.301 28.9922 148.325 29.3001 148.371C29.6081 148.414 29.8856 148.475 30.1327 148.554L29.9984 151.078V151.196C29.9984 151.834 30.2365 152.152 30.7127 152.152C31.0386 152.152 31.3036 151.961 31.5077 151.578C31.7118 151.191 31.8138 150.69 31.8138 150.074C31.8138 149.426 31.6813 148.858 31.4164 148.371C31.1514 147.884 30.7736 147.51 30.2831 147.249C29.7961 146.984 29.2357 146.851 28.6019 146.851C27.8034 146.851 27.1087 147.018 26.5179 147.351C25.9271 147.68 25.4759 148.153 25.1644 148.769C24.8529 149.381 24.6971 150.09 24.6971 150.896C24.6971 151.988 24.9854 152.827 25.5619 153.415C26.1384 154.002 26.9691 154.295 28.054 154.295C28.806 154.295 29.5866 154.141 30.3958 153.833V154.548C29.7083 154.849 28.9277 154.999 28.054 154.999C26.7542 154.999 25.7445 154.643 25.0248 153.93C24.3086 153.214 23.9505 152.215 23.9505 150.933C23.9505 150.002 24.1421 149.173 24.5252 148.446C24.9084 147.719 25.4544 147.157 26.1634 146.76C26.8724 146.359 27.6852 146.158 28.6019 146.158C29.3718 146.158 30.0557 146.321 30.6537 146.647C31.2552 146.969 31.7189 147.429 32.0448 148.027C32.3742 148.622 32.5389 149.307 32.5389 150.084ZM26.9852 150.788C26.9852 151.698 27.3343 152.152 28.0326 152.152C28.7738 152.152 29.1766 151.592 29.2411 150.471L29.3163 149.069C29.0584 148.998 28.7774 148.962 28.473 148.962C28.0075 148.962 27.6423 149.123 27.3773 149.445C27.1159 149.768 26.9852 150.215 26.9852 150.788ZM35.8665 150.987C36.0205 150.768 36.255 150.482 36.5701 150.127L38.4715 148.113H39.5296L37.1448 150.622L39.6961 154H38.6165L36.5379 151.218L35.8665 151.798V154H34.9857V145.643H35.8665V150.074C35.8665 150.271 35.8522 150.575 35.8235 150.987H35.8665ZM46.6922 151.051C46.6922 152.011 46.4505 152.761 45.9671 153.302C45.4837 153.839 44.8159 154.107 43.9636 154.107C43.4373 154.107 42.97 153.984 42.5618 153.737C42.1536 153.49 41.8385 153.135 41.6165 152.673C41.3945 152.211 41.2835 151.671 41.2835 151.051C41.2835 150.092 41.5234 149.345 42.0032 148.812C42.483 148.274 43.149 148.006 44.0012 148.006C44.8248 148.006 45.4783 148.28 45.9617 148.828C46.4487 149.375 46.6922 150.117 46.6922 151.051ZM42.2073 151.051C42.2073 151.803 42.3577 152.376 42.6585 152.77C42.9592 153.164 43.4015 153.361 43.9851 153.361C44.5688 153.361 45.011 153.166 45.3118 152.775C45.6161 152.382 45.7683 151.807 45.7683 151.051C45.7683 150.303 45.6161 149.735 45.3118 149.349C45.011 148.958 44.5652 148.763 43.9744 148.763C43.3907 148.763 42.9503 148.955 42.6531 149.338C42.3559 149.721 42.2073 150.292 42.2073 151.051ZM53.135 154V150.192C53.135 149.712 53.0258 149.354 52.8074 149.118C52.5889 148.881 52.247 148.763 51.7815 148.763C51.1656 148.763 50.7144 148.93 50.428 149.263C50.1415 149.596 49.9983 150.145 49.9983 150.912V154H49.1067V148.113H49.8318L49.9768 148.919H50.0198C50.2024 148.629 50.4584 148.405 50.7878 148.248C51.1172 148.086 51.4843 148.006 51.8889 148.006C52.5979 148.006 53.1314 148.178 53.4895 148.521C53.8476 148.862 54.0266 149.408 54.0266 150.16V154H53.135ZM60.507 152.394C60.507 152.942 60.3029 153.364 59.8947 153.662C59.4865 153.959 58.9136 154.107 58.176 154.107C57.3954 154.107 56.7866 153.984 56.3498 153.737V152.91C56.6327 153.053 56.9352 153.166 57.2575 153.248C57.5834 153.33 57.8967 153.372 58.1975 153.372C58.6629 153.372 59.021 153.298 59.2717 153.151C59.5223 153.001 59.6476 152.774 59.6476 152.469C59.6476 152.24 59.5474 152.045 59.3469 151.884C59.1499 151.719 58.7632 151.526 58.1867 151.304C57.6389 151.1 57.2486 150.922 57.0158 150.772C56.7866 150.618 56.6148 150.444 56.5002 150.251C56.3892 150.058 56.3337 149.827 56.3337 149.558C56.3337 149.078 56.5288 148.701 56.9191 148.425C57.3094 148.146 57.8448 148.006 58.5251 148.006C59.1589 148.006 59.7783 148.135 60.3835 148.393L60.0666 149.118C59.4758 148.874 58.9405 148.752 58.4606 148.752C58.0381 148.752 57.7194 148.819 57.5046 148.951C57.2897 149.084 57.1823 149.266 57.1823 149.499C57.1823 149.657 57.2217 149.791 57.3005 149.902C57.3828 150.013 57.5135 150.118 57.6926 150.219C57.8716 150.319 58.2154 150.464 58.7238 150.654C59.4221 150.908 59.8929 151.164 60.1364 151.422C60.3835 151.68 60.507 152.004 60.507 152.394ZM64.7101 153.372C64.8677 153.372 65.0198 153.361 65.1667 153.339C65.3135 153.314 65.4298 153.289 65.5158 153.264V153.946C65.4191 153.993 65.2759 154.03 65.0861 154.059C64.8999 154.091 64.7316 154.107 64.5812 154.107C63.4425 154.107 62.8732 153.508 62.8732 152.308V148.806H62.0299V148.376L62.8732 148.006L63.2492 146.749H63.7648V148.113H65.4728V148.806H63.7648V152.271C63.7648 152.625 63.8489 152.897 64.0172 153.087C64.1855 153.277 64.4165 153.372 64.7101 153.372ZM70.2291 148.006C70.4905 148.006 70.725 148.027 70.9327 148.07L70.8092 148.897C70.5657 148.844 70.3509 148.817 70.1647 148.817C69.6884 148.817 69.2802 149.01 68.9401 149.397C68.6035 149.784 68.4352 150.265 68.4352 150.842V154H67.5436V148.113H68.2794L68.3815 149.204H68.4244C68.6429 148.82 68.906 148.525 69.214 148.317C69.5219 148.11 69.8603 148.006 70.2291 148.006ZM73.7178 148.113V151.932C73.7178 152.412 73.8271 152.77 74.0455 153.006C74.2639 153.243 74.6059 153.361 75.0714 153.361C75.6873 153.361 76.1366 153.193 76.4195 152.856C76.706 152.519 76.8492 151.97 76.8492 151.207V148.113H77.7408V154H77.005L76.8761 153.21H76.8277C76.6451 153.5 76.3909 153.722 76.065 153.876C75.7428 154.03 75.3739 154.107 74.9586 154.107C74.2424 154.107 73.7053 153.937 73.3472 153.597C72.9928 153.257 72.8155 152.713 72.8155 151.964V148.113H73.7178ZM82.8355 154.107C81.9833 154.107 81.3226 153.846 80.8536 153.323C80.3881 152.797 80.1553 152.054 80.1553 151.094C80.1553 150.11 80.3916 149.349 80.8643 148.812C81.3405 148.274 82.0173 148.006 82.8946 148.006C83.1774 148.006 83.4603 148.036 83.7432 148.097C84.0261 148.158 84.2481 148.23 84.4092 148.312L84.1353 149.069C83.9384 148.991 83.7235 148.926 83.4908 148.876C83.258 148.822 83.0521 148.795 82.8731 148.795C81.6771 148.795 81.0791 149.558 81.0791 151.083C81.0791 151.807 81.2242 152.362 81.5142 152.749C81.8078 153.135 82.2411 153.329 82.814 153.329C83.3046 153.329 83.8077 153.223 84.3233 153.012V153.801C83.9294 154.005 83.4335 154.107 82.8355 154.107ZM88.4727 153.372C88.6302 153.372 88.7824 153.361 88.9292 153.339C89.076 153.314 89.1924 153.289 89.2783 153.264V153.946C89.1816 153.993 89.0384 154.03 88.8486 154.059C88.6624 154.091 88.4941 154.107 88.3438 154.107C87.2051 154.107 86.6357 153.508 86.6357 152.308V148.806H85.7925V148.376L86.6357 148.006L87.0117 146.749H87.5273V148.113H89.2354V148.806H87.5273V152.271C87.5273 152.625 87.6115 152.897 87.7798 153.087C87.9481 153.277 88.179 153.372 88.4727 153.372ZM91.1772 153.431C91.1772 153.191 91.2309 153.01 91.3383 152.888C91.4493 152.763 91.6069 152.7 91.811 152.7C92.0187 152.7 92.1798 152.763 92.2944 152.888C92.4126 153.01 92.4716 153.191 92.4716 153.431C92.4716 153.663 92.4126 153.842 92.2944 153.968C92.1762 154.093 92.0151 154.156 91.811 154.156C91.6284 154.156 91.4762 154.1 91.3545 153.989C91.2363 153.875 91.1772 153.688 91.1772 153.431ZM97.4374 154.107C96.5852 154.107 95.9246 153.846 95.4555 153.323C94.99 152.797 94.7572 152.054 94.7572 151.094C94.7572 150.11 94.9936 149.349 95.4662 148.812C95.9425 148.274 96.6192 148.006 97.4965 148.006C97.7794 148.006 98.0623 148.036 98.3451 148.097C98.628 148.158 98.85 148.23 99.0112 148.312L98.7372 149.069C98.5403 148.991 98.3254 148.926 98.0927 148.876C97.8599 148.822 97.6541 148.795 97.475 148.795C96.2791 148.795 95.6811 149.558 95.6811 151.083C95.6811 151.807 95.8261 152.362 96.1161 152.749C96.4098 153.135 96.843 153.329 97.4159 153.329C97.9065 153.329 98.4096 153.223 98.9252 153.012V153.801C98.5313 154.005 98.0354 154.107 97.4374 154.107ZM106.254 151.051C106.254 152.011 106.013 152.761 105.529 153.302C105.046 153.839 104.378 154.107 103.526 154.107C102.999 154.107 102.532 153.984 102.124 153.737C101.716 153.49 101.401 153.135 101.179 152.673C100.957 152.211 100.846 151.671 100.846 151.051C100.846 150.092 101.085 149.345 101.565 148.812C102.045 148.274 102.711 148.006 103.563 148.006C104.387 148.006 105.04 148.28 105.524 148.828C106.011 149.375 106.254 150.117 106.254 151.051ZM101.769 151.051C101.769 151.803 101.92 152.376 102.221 152.77C102.521 153.164 102.964 153.361 103.547 153.361C104.131 153.361 104.573 153.166 104.874 152.775C105.178 152.382 105.33 151.807 105.33 151.051C105.33 150.303 105.178 149.735 104.874 149.349C104.573 148.958 104.127 148.763 103.537 148.763C102.953 148.763 102.512 148.955 102.215 149.338C101.918 149.721 101.769 150.292 101.769 151.051ZM116.172 154V150.17C116.172 149.701 116.072 149.35 115.871 149.118C115.671 148.881 115.359 148.763 114.937 148.763C114.382 148.763 113.972 148.923 113.707 149.241C113.442 149.56 113.309 150.05 113.309 150.713V154H112.418V150.17C112.418 149.701 112.318 149.35 112.117 149.118C111.917 148.881 111.603 148.763 111.177 148.763C110.618 148.763 110.209 148.931 109.947 149.268C109.689 149.601 109.56 150.149 109.56 150.912V154H108.669V148.113H109.394L109.539 148.919H109.582C109.75 148.632 109.987 148.409 110.291 148.248C110.599 148.086 110.943 148.006 111.322 148.006C112.242 148.006 112.844 148.339 113.127 149.005H113.17C113.345 148.697 113.599 148.453 113.932 148.274C114.265 148.095 114.645 148.006 115.071 148.006C115.737 148.006 116.235 148.178 116.564 148.521C116.897 148.862 117.064 149.408 117.064 150.16V154H116.172Z" fill="white"/>
<path d="M4.44189 4.85107C3.57894 4.85107 2.89681 5.13932 2.39551 5.71582C1.89779 6.28874 1.64893 7.07471 1.64893 8.07373C1.64893 9.1014 1.88883 9.89632 2.36865 10.4585C2.85205 11.0171 3.53955 11.2964 4.43115 11.2964C4.979 11.2964 5.60384 11.1979 6.30566 11.001V11.8013C5.76139 12.0054 5.09001 12.1074 4.2915 12.1074C3.13493 12.1074 2.24154 11.7565 1.61133 11.0547C0.984701 10.3529 0.671387 9.35563 0.671387 8.06299C0.671387 7.25374 0.821777 6.54476 1.12256 5.93604C1.42692 5.32731 1.86377 4.85824 2.43311 4.52881C3.00602 4.19938 3.6792 4.03467 4.45264 4.03467C5.2762 4.03467 5.99593 4.18506 6.61182 4.48584L6.2251 5.27002C5.6307 4.99072 5.0363 4.85107 4.44189 4.85107ZM15.6811 8.06299C15.6811 9.31982 15.3624 10.3081 14.7251 11.0278C14.0913 11.7476 13.2086 12.1074 12.0771 12.1074C10.9205 12.1074 10.0271 11.7547 9.39693 11.0493C8.77031 10.3403 8.45699 9.34131 8.45699 8.05225C8.45699 6.77393 8.7721 5.78385 9.40231 5.08203C10.0325 4.37663 10.9277 4.02393 12.0879 4.02393C13.2158 4.02393 14.0966 4.382 14.7304 5.09814C15.3642 5.81429 15.6811 6.80257 15.6811 8.06299ZM9.42379 8.06299C9.42379 9.12646 9.64938 9.93392 10.1005 10.4854C10.5553 11.0332 11.2142 11.3071 12.0771 11.3071C12.9472 11.3071 13.6043 11.0332 14.0483 10.4854C14.4923 9.9375 14.7143 9.13005 14.7143 8.06299C14.7143 7.00667 14.4923 6.20638 14.0483 5.66211C13.6079 5.11426 12.9544 4.84033 12.0879 4.84033C11.2177 4.84033 10.5553 5.11605 10.1005 5.66748C9.64938 6.21533 9.42379 7.01383 9.42379 8.06299ZM24.4174 12H23.3754L19.0839 5.40967H19.0409C19.0982 6.18311 19.1269 6.89209 19.1269 7.53662V12H18.2836V4.14746H19.3149L23.5956 10.7109H23.6386C23.6314 10.6143 23.6153 10.3045 23.5903 9.78174C23.5652 9.25537 23.5562 8.87939 23.5634 8.65381V4.14746H24.4174V12ZM29.8397 12H28.9266V4.9585H26.4398V4.14746H32.3265V4.9585H29.8397V12ZM39.2957 12L38.3182 9.50244H35.1707L34.204 12H33.2801L36.3846 4.11523H37.1527L40.2411 12H39.2957ZM38.0335 8.68066L37.1205 6.24756C37.0023 5.93962 36.8805 5.56185 36.7552 5.11426C36.6764 5.45801 36.5637 5.83577 36.4168 6.24756L35.493 8.68066H38.0335ZM45.5291 4.85107C44.6662 4.85107 43.984 5.13932 43.4827 5.71582C42.985 6.28874 42.7361 7.07471 42.7361 8.07373C42.7361 9.1014 42.9761 9.89632 43.4559 10.4585C43.9393 11.0171 44.6268 11.2964 45.5184 11.2964C46.0662 11.2964 46.6911 11.1979 47.3929 11.001V11.8013C46.8486 12.0054 46.1772 12.1074 45.3787 12.1074C44.2221 12.1074 43.3288 11.7565 42.6985 11.0547C42.0719 10.3529 41.7586 9.35563 41.7586 8.06299C41.7586 7.25374 41.909 6.54476 42.2098 5.93604C42.5141 5.32731 42.951 4.85824 43.5203 4.52881C44.0932 4.19938 44.7664 4.03467 45.5399 4.03467C46.3634 4.03467 47.0831 4.18506 47.699 4.48584L47.3123 5.27002C46.7179 4.99072 46.1235 4.85107 45.5291 4.85107ZM52.3694 12H51.4563V4.9585H48.9695V4.14746H54.8562V4.9585H52.3694V12ZM66.5226 4.14746V9.22852C66.5226 10.1237 66.2523 10.8273 65.7116 11.3394C65.1709 11.8514 64.4279 12.1074 63.4826 12.1074C62.5373 12.1074 61.805 11.8496 61.2858 11.334C60.7702 10.8184 60.5124 10.1094 60.5124 9.20703V4.14746H61.4255V9.27148C61.4255 9.92676 61.6045 10.4299 61.9626 10.7808C62.3207 11.1317 62.847 11.3071 63.5417 11.3071C64.2041 11.3071 64.7144 11.1317 65.0725 10.7808C65.4305 10.4263 65.6096 9.9196 65.6096 9.26074V4.14746H66.5226ZM73.8839 9.91064C73.8839 10.6017 73.6333 11.1406 73.132 11.5273C72.6307 11.9141 71.9503 12.1074 71.091 12.1074C70.16 12.1074 69.4438 11.9875 68.9425 11.7476V10.8667C69.2648 11.0028 69.6157 11.1102 69.9953 11.189C70.3748 11.2677 70.7508 11.3071 71.1232 11.3071C71.7319 11.3071 72.1903 11.1925 72.4982 10.9634C72.8061 10.7306 72.9601 10.4084 72.9601 9.99658C72.9601 9.72445 72.9046 9.50244 72.7936 9.33057C72.6862 9.15511 72.5036 8.99398 72.2458 8.84717C71.9915 8.70036 71.603 8.53385 71.0802 8.34766C70.3498 8.08626 69.827 7.77653 69.5119 7.41846C69.2003 7.06038 69.0446 6.5931 69.0446 6.0166C69.0446 5.41146 69.272 4.92985 69.7267 4.57178C70.1815 4.2137 70.783 4.03467 71.5314 4.03467C72.312 4.03467 73.0299 4.1779 73.6852 4.46436L73.4005 5.25928C72.7524 4.98714 72.1222 4.85107 71.5099 4.85107C71.0265 4.85107 70.6488 4.95492 70.3766 5.1626C70.1045 5.37028 69.9684 5.65853 69.9684 6.02734C69.9684 6.29948 70.0185 6.52327 70.1188 6.69873C70.2191 6.87061 70.3874 7.02995 70.6237 7.17676C70.8636 7.31999 71.2288 7.47933 71.7194 7.65479C72.543 7.9484 73.1087 8.26351 73.4167 8.6001C73.7282 8.93669 73.8839 9.37354 73.8839 9.91064Z" fill="white"/>
</svg>
